<svg width="26" height="25" viewBox="0 0 26 25" fill="none" xmlns="http://www.w3.org/2000/svg">
<g clip-path="url(#clip0)">
<path d="M20.8196 3.23581C16.5054 -1.0788 9.48512 -1.07841 5.17087 3.23581C0.856455 7.55023 0.856455 14.5703 5.17087 18.8845C7.58423 21.2983 11.0113 22.4629 14.3955 22.0348L18.2154 24.8562C18.3432 24.9506 18.4968 25 18.6523 25C18.7176 25 18.7831 24.9914 18.8473 24.9738C19.0648 24.9138 19.243 24.7575 19.3303 24.5495L20.4198 21.9573C20.5773 21.5829 20.4013 21.1518 20.0268 20.9943C19.6522 20.8373 19.2209 21.0129 19.0639 21.3873L18.3369 23.1172L15.0276 20.6731C14.8698 20.5565 14.671 20.5067 14.4777 20.5381C11.4559 21.0072 8.367 20.0007 6.21084 17.8445C2.47002 14.1037 2.47002 8.01677 6.21084 4.27575C9.95146 0.535128 16.0382 0.534762 19.7796 4.27575C22.157 6.65351 23.1083 10.0285 22.3242 13.3039C22.3223 13.312 22.3204 13.32 22.3188 13.3281C22.2089 13.781 22.0654 14.2282 21.8963 14.6476L20.1782 18.7359C20.0208 19.1103 20.1968 19.5414 20.5712 19.6989C20.9456 19.8561 21.3769 19.6803 21.5342 19.3058L23.2563 15.2078C23.4574 14.7095 23.6237 14.1905 23.743 13.695C23.7539 13.6604 23.7621 13.6255 23.7679 13.5904C24.6477 9.83125 23.548 5.96425 20.8196 3.23581Z" fill="#333331"/>
<path d="M17.6562 7.61523H8.79734C8.47234 7.61523 8.20898 7.876 8.20898 8.20101C8.20898 8.52601 8.47234 8.78678 8.79734 8.78678H17.6562C17.9812 8.78678 18.2446 8.52601 18.2446 8.20101C18.2446 7.876 17.9812 7.61523 17.6562 7.61523Z" fill="#333331"/>
<path d="M18.2446 11.5693C18.2446 11.2443 17.9812 10.9835 17.6562 10.9835H8.79734C8.47234 10.9835 8.20898 11.2443 8.20898 11.5693C8.20898 11.8943 8.47234 12.1551 8.79734 12.1551H17.6562C17.9812 12.1551 18.2446 11.8943 18.2446 11.5693Z" fill="#333331"/>
<path d="M8.79734 14.3517C8.47234 14.3517 8.20898 14.6125 8.20898 14.9375C8.20898 15.2625 8.47234 15.5232 8.79734 15.5232H13.8616C14.1866 15.5232 14.4499 15.2625 14.4499 14.9375C14.4499 14.6125 14.1866 14.3517 13.8616 14.3517H8.79734Z" fill="#333331"/>
</g>
<defs>
<clipPath id="clip0">
<rect width="25" height="25" fill="white" transform="translate(0.5)"/>
</clipPath>
</defs>
</svg>
