<svg width="26" height="26" viewBox="0 0 26 26" fill="none" xmlns="http://www.w3.org/2000/svg">
<g clip-path="url(#clip0)">
<path d="M1.23486 19.1722V21.9657C1.23486 22.4144 1.59866 22.7782 2.04731 22.7782H23.9527C24.4014 22.7782 24.7652 22.4144 24.7652 21.9657V19.1722H1.23486Z" fill="white" fill-opacity="1"/>
<path d="M24.5755 5.07951L18.9848 11.4732L13.6741 3.58024C13.3525 3.10229 12.6476 3.10203 12.3258 3.58024L7.01513 11.4732L1.42456 5.07951C0.90542 4.48598 -0.0749649 4.91046 0.00455865 5.69615L1.2033 17.5473H24.7967L25.9955 5.69615C26.0748 4.91168 25.0952 4.48506 24.5755 5.07951ZM13 15.6612C11.5459 15.6612 10.363 14.4782 10.363 13.0242C10.363 11.5701 11.5459 10.3871 13 10.3871C14.4541 10.3871 15.6371 11.5701 15.6371 13.0242C15.6371 14.4782 14.4541 15.6612 13 15.6612Z" fill="white" fill-opacity="1"/>
</g>
<defs>
<clipPath id="clip0">
<rect width="26" height="26" fill="white"/>
</clipPath>
</defs>
</svg>
