<svg width="29" height="18" viewBox="0 0 29 18" fill="none" xmlns="http://www.w3.org/2000/svg">
<path d="M28.5297 7.58114C26.9022 5.4745 24.794 3.73197 22.4331 2.54207C20.0232 1.32742 17.4306 0.697191 14.7242 0.664141C14.6496 0.662083 14.3503 0.662083 14.2758 0.664141C11.5694 0.697248 8.97674 1.32742 6.5668 2.54207C4.20597 3.73197 2.09788 5.47444 0.470257 7.58114C-0.156752 8.39269 -0.156752 9.52626 0.470257 10.3378C2.09782 12.4444 4.20597 14.187 6.5668 15.3769C8.97674 16.5915 11.5693 17.2218 14.2758 17.2548C14.3503 17.2569 14.6496 17.2569 14.7242 17.2548C17.4305 17.2217 20.0232 16.5915 22.4331 15.3769C24.794 14.187 26.9021 12.4445 28.5297 10.3378C29.1568 9.52614 29.1568 8.39269 28.5297 7.58114ZM7.09384 14.3113C4.8894 13.2002 2.92069 11.5729 1.40052 9.60534C1.10673 9.22504 1.10673 8.6939 1.40052 8.31361C2.92063 6.34602 4.88934 4.7187 7.09384 3.6076C7.71994 3.29209 8.3593 3.01923 9.0105 2.78823C7.33519 4.3085 6.27969 6.51172 6.27969 8.95944C6.27969 11.4073 7.33524 13.6107 9.01072 15.1309C8.35953 14.8999 7.72 14.6269 7.09384 14.3113ZM14.5 16.067C10.6178 16.067 7.4594 12.8786 7.4594 8.95939C7.4594 5.04022 10.6178 1.85186 14.5 1.85186C18.3823 1.85186 21.5407 5.04028 21.5407 8.95944C21.5407 12.8786 18.3823 16.067 14.5 16.067ZM27.5995 9.60528C26.0794 11.5729 24.1107 13.2002 21.9062 14.3113C21.2808 14.6265 20.6419 14.8981 19.9915 15.1289C21.6657 13.6087 22.7204 11.4061 22.7204 8.95939C22.7204 6.51132 21.6646 4.30782 19.989 2.78754C20.6404 3.0186 21.28 3.2918 21.9063 3.60749C24.1107 4.71859 26.0794 6.34591 27.5996 8.31349C27.8933 8.69385 27.8933 9.22498 27.5995 9.60528Z" fill="black"/>
<path d="M14.5 5.91772C12.8387 5.91772 11.4871 7.28213 11.4871 8.95923C11.4871 10.6363 12.8387 12.0007 14.5 12.0007C16.1614 12.0007 17.513 10.6363 17.513 8.95923C17.5131 7.28213 16.1615 5.91772 14.5 5.91772ZM14.5 10.8099C13.4892 10.8099 12.6667 9.97977 12.6667 8.95923C12.6667 7.93874 13.4891 7.1086 14.5 7.1086C15.5109 7.1086 16.3333 7.93874 16.3333 8.95923C16.3334 9.97977 15.5109 10.8099 14.5 10.8099Z" fill="black"/>
</svg>
