<svg width="25" height="25" viewBox="0 0 25 25" fill="none" xmlns="http://www.w3.org/2000/svg">
<g clip-path="url(#clip0_59_147)">
<path d="M20.3196 3.23581C16.0054 -1.0788 8.98512 -1.07841 4.67087 3.23581C0.356455 7.55023 0.356455 14.5703 4.67087 18.8845C7.08423 21.2983 10.5113 22.4629 13.8955 22.0348L17.7154 24.8562C17.8432 24.9506 17.9968 25 18.1523 25C18.2176 25 18.2831 24.9914 18.3473 24.9738C18.5648 24.9138 18.743 24.7575 18.8303 24.5495L19.9198 21.9573C20.0773 21.5829 19.9013 21.1518 19.5268 20.9943C19.1522 20.8373 18.7209 21.0129 18.5639 21.3873L17.8369 23.1172L14.5276 20.6731C14.3698 20.5565 14.171 20.5067 13.9777 20.5381C10.9559 21.0072 7.867 20.0007 5.71084 17.8445C1.97002 14.1037 1.97002 8.01677 5.71084 4.27575C9.45146 0.535128 15.5382 0.534762 19.2796 4.27575C21.657 6.65351 22.6083 10.0285 21.8242 13.3039C21.8223 13.312 21.8204 13.32 21.8188 13.3281C21.7089 13.781 21.5654 14.2282 21.3963 14.6476L19.6782 18.7359C19.5208 19.1103 19.6968 19.5414 20.0712 19.6989C20.4456 19.8561 20.8769 19.6803 21.0342 19.3058L22.7563 15.2078C22.9574 14.7095 23.1237 14.1905 23.243 13.695C23.2539 13.6604 23.2621 13.6255 23.2679 13.5904C24.1477 9.83125 23.048 5.96425 20.3196 3.23581Z" fill="white"/>
<path d="M17.1562 7.61526H8.29734C7.97234 7.61526 7.70898 7.87603 7.70898 8.20104C7.70898 8.52604 7.97234 8.78681 8.29734 8.78681H17.1562C17.4812 8.78681 17.7446 8.52604 17.7446 8.20104C17.7446 7.87603 17.4812 7.61526 17.1562 7.61526Z" fill="white"/>
<path d="M17.7446 11.5693C17.7446 11.2443 17.4812 10.9835 17.1562 10.9835H8.29734C7.97234 10.9835 7.70898 11.2443 7.70898 11.5693C7.70898 11.8943 7.97234 12.155 8.29734 12.155H17.1562C17.4812 12.155 17.7446 11.8943 17.7446 11.5693Z" fill="white"/>
<path d="M8.29734 14.3517C7.97234 14.3517 7.70898 14.6124 7.70898 14.9374C7.70898 15.2624 7.97234 15.5232 8.29734 15.5232H13.3616C13.6866 15.5232 13.9499 15.2624 13.9499 14.9374C13.9499 14.6124 13.6866 14.3517 13.3616 14.3517H8.29734Z" fill="white"/>
</g>
<defs>
<clipPath id="clip0_59_147">
<rect width="25" height="25" fill="white"/>
</clipPath>
</defs>
</svg>
