<svg width="23" height="18" viewBox="0 0 23 18" fill="none" xmlns="http://www.w3.org/2000/svg">
<path d="M4.42252 8.97231V0.884669C4.42252 0.39608 4.02644 0 3.53785 0C3.04926 0 2.65318 0.39608 2.65318 0.884669V8.97231C1.09244 9.36955 0 10.7749 0 12.3854C0 13.9959 1.09244 15.4012 2.65318 15.7984V16.8087C2.65318 17.2973 3.04926 17.6934 3.53785 17.6934C4.02644 17.6934 4.42252 17.2973 4.42252 16.8087V15.7984C5.98325 15.4012 7.0757 13.9959 7.0757 12.3854C7.0757 10.7749 5.98325 9.36955 4.42252 8.97231ZM3.53785 14.1547C2.56067 14.1547 1.76851 13.3625 1.76851 12.3854C1.76851 11.4082 2.56067 10.616 3.53785 10.616C4.51503 10.616 5.30719 11.4082 5.30719 12.3854C5.30719 13.3625 4.51503 14.1547 3.53785 14.1547Z" fill="white"/>
<path d="M20.3473 8.97231V0.884669C20.3473 0.39608 19.9512 0 19.4627 0C18.9741 0 18.578 0.39608 18.578 0.884669V8.97231C17.0172 9.36955 15.9248 10.7749 15.9248 12.3854C15.9248 13.9959 17.0172 15.4012 18.578 15.7984V16.8087C18.578 17.2973 18.9741 17.6934 19.4627 17.6934C19.9512 17.6934 20.3473 17.2973 20.3473 16.8087V15.7984C21.9081 15.4012 23.0005 13.9959 23.0005 12.3854C23.0005 10.7749 21.9081 9.36955 20.3473 8.97231ZM19.4627 14.1547C18.4855 14.1547 17.6933 13.3625 17.6933 12.3854C17.6933 11.4082 18.4855 10.616 19.4627 10.616C20.4398 10.616 21.232 11.4082 21.232 12.3854C21.232 13.3625 20.4398 14.1547 19.4627 14.1547Z" fill="white"/>
<path d="M12.3844 1.89496V0.884669C12.3844 0.39608 11.9884 0 11.4998 0C11.0112 0 10.6151 0.39608 10.6151 0.884669V1.89496C9.05436 2.2922 7.96191 3.69752 7.96191 5.30801C7.96191 6.91851 9.05436 8.32383 10.6151 8.72107V16.8087C10.6151 17.2973 11.0112 17.6934 11.4998 17.6934C11.9884 17.6934 12.3844 17.2973 12.3844 16.8087V8.72107C13.9452 8.32383 15.0376 6.91851 15.0376 5.30801C15.0376 3.69752 13.9452 2.2922 12.3844 1.89496ZM11.4998 7.07735C10.5226 7.07735 9.73042 6.28519 9.73042 5.30801C9.73042 4.33083 10.5226 3.53868 11.4998 3.53868C12.4769 3.53868 13.2691 4.33083 13.2691 5.30801C13.2691 6.28519 12.4769 7.07735 11.4998 7.07735Z" fill="white"/>
</svg>
