<svg width="23" height="25" viewBox="0 0 23 25" fill="none" xmlns="http://www.w3.org/2000/svg">
<g clip-path="url(#clip0)">
<path d="M22.2348 6.12419C21.7757 5.61512 21.1416 5.3143 20.4202 5.3143H16.7909V5.26802C16.7909 4.68953 16.5722 4.13417 16.2006 3.76393C15.8289 3.37056 15.326 3.13916 14.7795 3.13916H8.22053C7.65209 3.13916 7.14924 3.37056 6.77757 3.76393C6.40589 4.15731 6.18726 4.68953 6.18726 5.26802V5.3143H2.57985C1.85837 5.3143 1.22433 5.61512 0.765209 6.12419C0.306084 6.61013 0 7.30432 0 8.0448V19.5684C0 20.332 0.284221 21.0031 0.765209 21.489C1.22433 21.975 1.88023 22.2989 2.57985 22.2989H20.4202C21.1416 22.2989 21.7757 21.9981 22.2348 21.489C22.6939 21.0031 23 20.3089 23 19.5684V8.0448C23 7.28118 22.7158 6.61013 22.2348 6.12419ZM21.8631 19.5684H21.8413C21.8413 19.9849 21.6882 20.3552 21.4259 20.6328C21.1635 20.9105 20.8137 21.0725 20.4202 21.0725H2.57985C2.18631 21.0725 1.8365 20.9105 1.57414 20.6328C1.31179 20.3552 1.15875 19.9849 1.15875 19.5684V8.0448C1.15875 7.62828 1.31179 7.25804 1.57414 6.98037C1.8365 6.70269 2.18631 6.54071 2.57985 6.54071H6.79943C7.12738 6.54071 7.38973 6.26303 7.38973 5.91594V5.24488C7.38973 4.99034 7.47719 4.75895 7.63023 4.59697C7.78327 4.43499 8.0019 4.34243 8.2424 4.34243H14.7795C15.02 4.34243 15.2386 4.43499 15.3916 4.59697C15.5447 4.75895 15.6321 4.99034 15.6321 5.24488V5.91594C15.6321 6.26303 15.8945 6.54071 16.2224 6.54071H20.442C20.8356 6.54071 21.1854 6.70269 21.4477 6.98037C21.7101 7.25804 21.8631 7.62828 21.8631 8.0448V19.5684Z" fill="white"/>
<path d="M11.4999 8.11426C10.0132 8.11426 8.6577 8.76217 7.69573 9.78032C6.71189 10.8216 6.12158 12.2331 6.12158 13.8066C6.12158 15.3802 6.73375 16.8148 7.69573 17.833C8.67957 18.8743 10.0132 19.499 11.4999 19.499C12.9866 19.499 14.3421 18.8511 15.3041 17.833C16.2879 16.7917 16.8782 15.3802 16.8782 13.8066C16.8782 12.2331 16.2661 10.7985 15.3041 9.78032C14.3421 8.76217 12.9866 8.11426 11.4999 8.11426ZM14.4733 16.9768C13.7081 17.7636 12.6587 18.2726 11.4999 18.2726C10.3412 18.2726 9.29173 17.7636 8.52653 16.9768C7.76132 16.1669 7.30219 15.0562 7.30219 13.8298C7.30219 12.6034 7.78318 11.4927 8.52653 10.6828C9.29173 9.87288 10.3412 9.38695 11.4999 9.38695C12.6587 9.38695 13.7081 9.89602 14.4733 10.6828C15.2385 11.4927 15.6976 12.6034 15.6976 13.8298C15.7195 15.0562 15.2385 16.1669 14.4733 16.9768Z" fill="white"/>
<path d="M19.2832 10.3588C19.8749 10.3588 20.3545 9.85112 20.3545 9.22492C20.3545 8.59871 19.8749 8.09106 19.2832 8.09106C18.6915 8.09106 18.2119 8.59871 18.2119 9.22492C18.2119 9.85112 18.6915 10.3588 19.2832 10.3588Z" fill="white"/>
</g>
<defs>
<clipPath id="clip0">
<rect width="23" height="24.3431" fill="white" transform="translate(0 0.547485)"/>
</clipPath>
</defs>
</svg>
