<svg width="22" height="23" viewBox="0 0 22 23" fill="none" xmlns="http://www.w3.org/2000/svg">
<path d="M21.8049 21.7221L16.4585 16.3251C17.8927 14.6606 18.761 12.489 18.761 10.1155C18.761 4.89077 14.5512 0.645996 9.38049 0.645996C4.20488 0.645996 0 4.8957 0 10.1155C0 15.3353 4.20976 19.585 9.38049 19.585C11.7317 19.585 13.8829 18.7084 15.5317 17.2607L20.878 22.6578C21.0049 22.7858 21.1756 22.8547 21.3415 22.8547C21.5073 22.8547 21.678 22.7907 21.8049 22.6578C22.0585 22.4017 22.0585 21.9782 21.8049 21.7221ZM1.31219 10.1155C1.31219 5.6245 4.93171 1.97557 9.37561 1.97557C13.8244 1.97557 17.439 5.62942 17.439 10.1155C17.439 14.6016 13.8244 18.2603 9.37561 18.2603C4.93171 18.2603 1.31219 14.6065 1.31219 10.1155Z" fill="black"/>
</svg>
