<?xml version="1.0" encoding="utf-8"?>
<!-- Generator: Adobe Illustrator 23.0.6, SVG Export Plug-In . SVG Version: 6.00 Build 0)  -->
<svg version="1.1" xmlns="http://www.w3.org/2000/svg" xmlns:xlink="http://www.w3.org/1999/xlink" x="0px" y="0px"
	 viewBox="0 0 200 200" style="enable-background:new 0 0 200 200;" xml:space="preserve">
<style type="text/css">
	.st0{fill:#FFFFFF;}
	.st1{display:none;fill:#8000A9;}
	.st2{fill:#C5ABD1;}
	.st3{fill:#8000A9;}
	.st4{display:none;fill:#C5ABD1;}
	.st5{display:none;}
	.st6{display:inline;fill:#C5ABD1;}
</style>
<g id="Layer_1">
	<g>
		<g>
			<path d="M3125.5-1229.3c-140.6,0-281.3,0-421.9,0c0-57.1,0-114.2,0-171.4c0.4-0.5,0.9-1,1.1-1.6c1-3.7,3.8-5.4,7.1-6.5
				c2.1-0.7,3.8-1.9,4.9-3.7c2-3,4.9-4.4,8.1-5.7c1.5-0.6,3-1,4.5-1.7c0.7-0.3,1.4-0.9,1.7-1.6c1.3-3.4,3.6-5.3,7.1-6.2
				c2-0.5,3.5-1.9,4.1-4c0.6-2.1,1.9-3.4,3.9-4.2c0.7-0.3,1.5-0.6,2.2-0.9c2.2-0.8,3.9-2.3,5.4-4.2c1.1-1.3,2.4-2.5,3.9-3.5
				c2.7-1.8,5.5-3.6,7.8-6c2.8-2.9,6.1-5.1,10.3-5.6c1.8-0.2,3.2-1.1,3.8-2.9c1.3-3.5,3.7-5.7,7.3-6.5c0.6-0.1,1.2-0.5,1.8-0.6
				c1.9-0.5,3.5-1.6,4.8-3.1c2.6-3.1,6.1-4.7,9.9-5.3c3.2-0.5,5.9-1.8,8.1-4.2c2.4-2.6,5.4-4.4,8.9-4.9c3.4-0.5,6.8-0.9,10.2-1
				c2.8-0.1,5-1,6.4-3.4c1.8-3,4.8-4.3,8-4.7c4.9-0.6,9.9-1,14.8-1c15.6-0.1,31.2-0.1,46.8-0.1c3.4,0,6.7-0.7,9.8-2
				c1.6-0.7,3.2-1,4.9-0.9c3.2,0.1,6.4,0.1,9.2-1.8c0.7-0.4,1.5-0.6,2.3-0.8c3.4-0.8,6.9-1.6,10.3-2.3c1-0.2,2.1-0.3,3.1-0.4
				c5.5-0.6,11-0.4,16.4-1.8c1.8-0.5,3.2-1,4.2-2.7c1.5-2.6,3.8-4.3,6.8-5c2.4-0.6,4.8-1.4,7.2-2c2.1-0.5,3.6-1.7,4.3-3.7
				c0.7-1.9,2.1-3.2,3.9-4c0.9-0.4,1.8-0.8,2.7-1.1c1.9-0.6,2.9-2,3.1-3.9c0.5-3.6,0.8-7.3,1.2-10.9c0.1-1,0.2-2.1,0.2-3.1
				c0-6.6,0.2-13.1,0-19.7c-0.2-5.6-0.9-11.1-1.1-16.7c-0.1-2.6-1-4.4-3.5-5.5c-2.4-1-4-2.7-4.8-5.3c-1-3.1-2.7-5.7-5.7-7.4
				c-1-0.6-1.8-1.6-2.4-2.6c-1.5-2.8-3.9-4.1-7-4.5c-4.4-0.6-8.3-2.3-11.7-5.2c-1.7-1.4-3.5-2.3-5.6-2.5c-4.1-0.4-8.1-0.9-12.2-0.9
				c-15.8,0-31.5,0.2-47.3,0.3c-9.4,0.1-18.9,0.1-28.3,0c-7.4-0.1-14.9-0.3-22.3-0.5c-0.6,0-1.1,0-1.7-0.1c-3.5-0.6-6.4-2-7.7-5.7
				c-0.6-1.7-1.8-2.6-3.5-3c-3.3-0.7-5.5-2.9-7-5.8c-0.7-1.3-1.6-2.3-2.9-3.1c-0.8-0.5-1.7-1.3-2.2-2.2c-1.4-2.7-2.6-5.5-2.6-8.6
				c0-8.2-0.6-16.5,0.5-24.7c0.7-5.5,2.3-10.6,5.6-15.1c1.2-1.7,1.8-3.5,2-5.6c0.4-5.2,0.4-10.4,0-15.6c-0.1-1.8-0.7-3-2.4-3.7
				c-2.6-1-4.2-2.9-4.8-5.6c-0.4-1.7-0.8-3.4-0.9-5.2c-0.1-7.4-0.1-14.7-0.1-22.1c0-3-1.1-4.9-3.9-6.2c-4-1.8-5.4-4.6-5.1-8.9
				c0.1-1.4,0.1-2.9,0.6-4.3c1.1-3.5,0.7-7.1,0.7-10.7c0-0.9-0.3-2-0.8-2.7c-1.5-2.1-3.4-3.7-6.3-3.7c-2.7,0-5.2-0.9-7.5-2.3
				c-3.6-2.2-7.3-3.6-11.4-4c-1.8-0.2-3.7-0.5-5.4-0.9c-3.8-1-6.4-3.2-7.4-7.1c-0.4-1.5-0.8-2.9-1.1-4.4c-0.4-1.9-1.1-3.8-0.8-5.6
				c0.7-5,1.8-9.9,2.8-14.8c0.4-2.2,1.5-4,3.1-5.5c5.5-5.3,4-3.4,5.8-10.3c0.8-3.2,2.1-6.1,4.5-8.3c2.7-2.5,4-5.6,4.4-9.1
				c0.6-4.4,2.3-8.2,5.2-11.6c1.2-1.5,2.4-3.2,2.8-4.9c1-3.7,1.5-7.5,2.2-11.3c0.7-4,2-7.7,4.8-10.8c1.9-2.1,2.9-4.4,2.8-7.2
				c-0.1-2.6-0.3-5.3-0.6-7.9c-0.2-1.6-1-2.8-2.1-3.9c-1.2-1.2-2.2-2.7-3.2-4.1c-1.9-2.8-2.7-6-3.6-9.1c-0.6-1.9-1.5-3.5-3.1-4.7
				c-3.1-2.2-4.6-5.4-4.9-9c-0.5-5.4-0.4-10.9,1.2-16.2c0.4-1.3,0.6-2.7,1.1-3.9c2.1-4.3,3.7-8.7,4.4-13.4c0.2-1.1,0.2-2.3,0.5-3.3
				c1.7-5.9,1.6-12,2.5-18c0.5-3.1,1.5-6,2.5-9c0.4-1.2,1.3-2.4,2.3-3.3c2.4-2.1,3.3-4.6,3.4-7.6c0.1-1.6,0.1-3.2,0-4.8
				c-0.1-3.2,0.6-6.3,1.6-9.4c0.7-2,1.1-4,1.5-6c0.5-2.4-0.1-3-2.5-3.1c-2,0-2.7,0.4-3.4,2.3c-0.4,1.2-0.8,2.5-0.9,3.7
				c-0.3,2.6-0.5,5.3-0.6,7.9c-0.1,2.8-1,5.3-2.4,7.7c-2.8,4.8-7.6,5.8-12.6,6c-0.9,0-1.9-0.7-2.7-1.4c-0.4-0.3-0.7-1.2-0.6-1.7
				c0.2-1.7,0.4-3.5,1.1-5.1c1.6-4.3,2.3-8.8,2.4-13.4c0.2-6.8,0.4-13.6,0.8-20.4c0.3-5.3,2.3-10.1,5.7-14.2
				c0.6-0.7,1.1-1.4,1.3-2.3c0.8-3,1.6-6,2.1-9.1c0.7-3.9,2.2-7.1,5.9-9c1.2-0.6,1.9-1.6,2.2-3c0.4-1.9,0.8-3.8,1.1-5.7
				c0.6-3.8,2-7.1,6.1-8.4c2.1-0.7,3.1-2.4,3.6-4.5c0.7-3.1,2.1-5.8,4.8-7.5c1.3-0.9,2.2-2,3-3.3c1.2-1.9,2.4-3.8,3.8-5.5
				c1.4-1.7,3.1-3.2,4.7-4.8c4.1-4.1,8.1-8.1,12.2-12.2c0.7-0.7,1.4-1.3,2.2-1.9c1.5-1.3,3.2-2.4,4.6-3.8c2-2,4.3-3.3,7-3.9
				c2.4-0.5,4.1-1.6,4.9-4.2c0.9-2.9,3-4.8,6.2-5.4c2.7-0.5,5-1.8,6.7-4.2c1-1.5,2.8-2.7,4.4-3.5c2.1-1,4.4-1.6,6.6-2
				c2.2-0.5,3.7-1.5,4.7-3.6c1.4-2.8,3.9-4.1,6.9-4.6c2.4-0.4,4.7-0.7,7.1-0.9c3-0.2,5.1-1.5,6.5-4.1c1.1-2.2,2.9-3.6,5.4-4
				c2.7-0.5,5.4-0.7,8.1-1.1c3.8-0.6,7.6-1.2,10.4-4.3c1.5-1.7,3.5-3.1,5.9-3.6c4.1-0.8,8.3-1.5,12.5-2.1c4.2-0.6,8.3-1.5,11.8-4.2
				c1-0.8,2.2-1.3,3.4-1.7c5.5-1.9,11.1-2.8,17-2.8c2.9,0,5.7-0.4,8.5-1c2.7-0.6,5.3-1.7,7.3-3.9c0.8-0.9,2.1-1.6,3.2-2
				c3.8-1.2,7.7-2.1,11.7-2.3c5.5-0.3,11-0.5,16.5-0.9c1.7-0.1,3.5-0.8,5.2-0.9c3.8-0.2,7.4-1.1,11-2.1c4.1-1.2,8.2-2.7,12.6-2.4
				c0.5,0,1.1-0.2,1.6-0.3c3.4-0.8,6.8-0.6,10.2-0.2c1.2,0.1,2.3,0,3.5,0c0.8,0,1.6-0.2,2.4-0.2c3.9-0.4,7.6,0.6,11.4,1.2
				c4.2,0.7,8.2,2,12.4,2.8c4.5,0.9,9.1,1.5,13.7,2.1c2.5,0.3,5.1,0.4,7.7,0.6c6.1,0.4,12.3,0.1,18.4,1.4c2.6,0.6,5,1.5,6.8,3.3
				c2.8,2.8,6.3,4.1,10.1,4.4c2.5,0.3,5.1,0.3,7.7,0.4c4.4,0.1,8.8,0.8,13,2.2c2.3,0.8,4.5,1.7,6.1,3.6c1.4,1.6,3.2,2.3,5.2,2.7
				c3.7,0.8,7.3,1.6,11,2.4c2.5,0.5,4.7,1.7,6.4,3.6c2.3,2.6,5.2,3.6,8.4,4.3c3.6,0.8,6.5,2.4,8.3,5.9c0.4,0.7,1.1,1.5,1.9,1.7
				c3.1,0.9,6.2,1.7,9.3,2.3c2.5,0.5,4.6,1.5,5.9,3.7c1.2,2.1,3,3.2,5.1,4.1c1.5,0.6,3,1.2,4.4,1.9c2.1,1.1,4.5,2.1,5.7,4.2
				c1.6,2.6,3.9,3.9,6.7,4.7c2.6,0.8,4.5,2.5,5.3,5.1c0.8,2.4,2.3,3.6,4.6,4.4c2.6,0.8,4.8,2.2,5.6,5.1c0.5,1.6,1.6,2.6,3.2,3.3
				c2.8,1.2,5.3,2.9,6,6.3c0.4,2.1,1.9,3.3,3.9,3.9c2.6,0.8,4.1,2.7,5,5.1c0.2,0.5,0.3,0.9,0.5,1.4c0.6,1.8,1.7,3.1,3.5,3.7
				c2.1,0.8,3.4,2.4,4.3,4.3c0.6,1.1,0.9,2.3,1.6,3.2c1,1.4,2,3,3.3,4c2.2,1.5,3.5,3.5,4.3,5.9c0.7,2,1.4,4.1,1.9,6.2
				c0.5,2.1,1.5,3.7,3.5,4.6c2,0.9,3.1,2.4,3.9,4.3c1.1,2.6,1.8,5.3,1.8,8.1c0,2.9,1,5.3,3.7,6.8c2.1,1.2,3.4,3.2,4.1,5.5
				c0.7,2.3,1,4.7,1.3,7.1c0.5,4.2,1.6,8.1,4.3,11.5c1,1.2,1.8,2.7,2.3,4.2c2,5.3,2.8,10.8,3,16.4c0.2,3.7,0.3,7.3,0.4,11
				c0.2,4.3,1.8,8,4.6,11.4c0.9,1.1,1.7,2.4,1.9,3.8c0.6,3.6,1.4,7.2,1.3,10.9c-0.1,3.5,0.3,7,0.4,10.5c0.2,4.1,0.4,8.1,0.5,12.2
				c0.1,3.4,0,6.7,0,10.1c-0.2,13.4-0.4,26.7-0.6,40.1c0,0.9-0.1,1.8-0.2,2.6c-0.3,5.3-1.2,10.5-2.1,15.6c-0.3,1.7-0.9,3.2-2.2,4.4
				c-2.4,2.1-3.2,4.9-3.6,7.9c-0.3,2.9-0.5,5.9-0.5,8.9c0,7.7-0.3,15.3-1.5,22.9c-0.7,4.3-1.7,8.4-4.9,11.7c-1,1-1.7,2.4-2,3.8
				c-0.6,2.6-0.9,5.2-1.3,7.8c-0.5,3.4-0.9,6.9-2.8,9.8c-1.1,1.7-2.5,3.1-3.8,4.6c-1.7,1.8-2.5,3.9-2.5,6.3c0,1.6,0.1,3.2-0.1,4.8
				c-0.4,3.9-1.2,7.8-5.1,9.7c-2.7,1.3-3.6,3.4-3.7,6.2c0,0.9-0.1,1.8-0.2,2.6c-0.6,5.9-1.1,11.8-3,17.4c-0.4,1.3-1,2.6-1.9,3.6
				c-2.1,2.5-3.3,5.3-3.7,8.4c-0.6,4.6-1,9.2-1.5,13.8c-0.5,4.4-1.1,8.7-1.8,13.1c-0.5,3.1-1.4,6.2-2.3,9.3
				c-0.2,0.9-0.6,1.9-1.1,2.6c-2.1,2.9-2.5,6.4-2.8,9.8c-0.2,2,0.3,4.3,2.1,5.6c2.6,1.9,2.6,4.9,0.8,7.5c-1.8,2.6-2.8,5.4-3.2,8.4
				c-0.4,2.8-0.4,5.8-0.1,8.6c0.2,2.2,1.4,4.2,3.1,5.8c1.4,1.3,1.4,2.2,0.3,3c-2.8,2-3.6,4.8-3.9,7.9c-0.5,3.9-0.9,7.8-2.7,11.4
				c-1.4,2.7-1.1,5.7,0,8.4c1.4,3.6,2.1,7.4,2.1,11.2c0,4.2,0.8,8.3,2.1,12.3c0.5,1.5,1.4,3,2.5,4c2.3,1.9,3.5,4.3,4.1,7.1
				c0.7,3.1,2.2,5.9,4.4,8.1c3.2,3.1,5.9,6.5,8.1,10.3c0.5,0.8,1.2,1.5,1.9,2.1c2.9,2.2,5.6,4.5,6.7,8.2c0.4,1.4,1.5,2.2,2.9,2.7
				c1.2,0.5,2.6,0.9,3.4,1.7c3.5,4,7.5,7.4,11.7,10.5c0.2,0.1,0.3,0.4,0.5,0.5c3.4,3.8,7.3,6.9,11.6,9.5c1.2,0.7,2.1,1.9,3.1,2.9
				c1.1,1,2.1,2.1,3.4,3c1.1,0.8,2.4,1.2,3.7,1.8c1.8,0.9,3.4,1.9,4.2,3.7c1.2,2.9,3.1,5,6.3,5.7c0.6,0.1,1.2,0.5,1.8,0.8
				c1.5,0.8,2.7,1.8,3.3,3.4c0.7,2,2.1,2.9,3.9,3.5c3.4,1,6.5,2.7,9.3,4.8c0.6,0.5,1.3,1,1.7,1.6c1.3,2.3,3.3,3.7,5.7,4.5
				c3.1,1,5.4,2.7,6.6,5.8c0.6,1.6,1.9,2.5,3.6,2.9c4,0.9,6.9,2.9,7.5,7.3c0,87,0,174.1,0,261.1c-0.7,0.1-1.4,0.2-2.1,0.2
				c-4.5-0.1-8,1.7-10.8,5.1c-77.1,0-154.2,0-231.4,0c-0.1-0.7-0.2-1.4-0.2-2c0-1.6-0.4-2.2-2.1-2.2c-5.2,0-10.4,0-15.5,0
				c-1.2,0-1.7,0.5-1.9,1.7c-0.2,0.9-0.6,1.8-0.9,2.6c-4.5,0-9,0-13.4,0c-2.4-3.4-5.8-5.1-9.9-5.1
				C3131.6-1234.3,3128.2-1232.5,3125.5-1229.3z M2814-2029c0.3-0.7,0.6-1.1,0.7-1.6c0-0.1-0.5-0.6-0.6-0.5c-0.4,0.3-0.8,0.7-1,1.1
				C2813.1-2029.9,2813.6-2029.5,2814-2029z"/>
			<path class="st0" d="M3424.1-1495.7c-0.6-4.4-3.5-6.4-7.5-7.3c-1.7-0.4-3-1.3-3.6-2.9c-1.2-3.1-3.5-4.8-6.6-5.8
				c-2.4-0.8-4.4-2.1-5.7-4.5c-0.4-0.7-1.1-1.2-1.7-1.6c-2.8-2.1-5.9-3.8-9.3-4.8c-1.8-0.6-3.3-1.5-3.9-3.5
				c-0.5-1.6-1.8-2.6-3.3-3.4c-0.6-0.3-1.1-0.6-1.8-0.8c-3.2-0.7-5.1-2.8-6.3-5.7c-0.8-1.9-2.5-2.9-4.2-3.7c-1.2-0.6-2.5-1-3.7-1.8
				c-1.2-0.8-2.3-2-3.4-3c-1-1-1.9-2.2-3.1-2.9c-4.3-2.6-8.3-5.7-11.6-9.5c-0.2-0.2-0.3-0.4-0.5-0.5c-4.2-3.2-8.2-6.5-11.7-10.5
				c-0.8-0.9-2.2-1.3-3.4-1.7c-1.3-0.5-2.5-1.3-2.9-2.7c-1.1-3.7-3.8-6-6.7-8.2c-0.7-0.6-1.5-1.3-1.9-2.1c-2.2-3.9-5-7.2-8.1-10.3
				c-2.3-2.2-3.7-5-4.4-8.1c-0.6-2.8-1.7-5.2-4.1-7.1c-1.2-0.9-2-2.5-2.5-4c-1.3-4-2.1-8.1-2.1-12.3c0-3.9-0.6-7.6-2.1-11.2
				c-1.1-2.7-1.4-5.7,0-8.4c1.8-3.6,2.2-7.5,2.7-11.4c0.4-3.1,1.1-5.9,3.9-7.9c1.2-0.8,1.1-1.7-0.3-3c-1.7-1.6-2.9-3.5-3.1-5.8
				c-0.3-2.8-0.3-5.8,0.1-8.6c0.4-3,1.5-5.9,3.2-8.4c1.8-2.6,1.7-5.5-0.8-7.5c-1.8-1.4-2.3-3.6-2.1-5.6c0.3-3.4,0.6-6.9,2.8-9.8
				c0.5-0.8,0.9-1.7,1.1-2.6c0.8-3.1,1.7-6.2,2.3-9.3c0.8-4.3,1.3-8.7,1.8-13.1c0.6-4.6,0.9-9.2,1.5-13.8c0.4-3.1,1.6-6,3.7-8.4
				c0.9-1,1.5-2.3,1.9-3.6c1.9-5.6,2.4-11.5,3-17.4c0.1-0.9,0.1-1.8,0.2-2.6c0.1-2.7,1-4.8,3.7-6.2c3.9-1.9,4.7-5.8,5.1-9.7
				c0.2-1.6,0.1-3.2,0.1-4.8c0-2.4,0.8-4.5,2.5-6.3c1.3-1.5,2.7-2.9,3.8-4.6c1.9-2.9,2.3-6.4,2.8-9.8c0.4-2.6,0.6-5.2,1.3-7.8
				c0.3-1.3,1.1-2.8,2-3.8c3.2-3.3,4.2-7.4,4.9-11.7c1.2-7.6,1.5-15.3,1.5-22.9c0-3,0.1-5.9,0.5-8.9c0.4-3,1.2-5.8,3.6-7.9
				c1.3-1.2,1.9-2.7,2.2-4.4c1-5.2,1.8-10.4,2.1-15.6c0.1-0.9,0.2-1.8,0.2-2.6c0.2-13.4,0.4-26.7,0.6-40.1c0-3.4,0.1-6.7,0-10.1
				c-0.1-4.1-0.3-8.1-0.5-12.2c-0.1-3.5-0.5-7-0.4-10.5c0.1-3.7-0.7-7.3-1.3-10.9c-0.2-1.3-1.1-2.7-1.9-3.8
				c-2.7-3.3-4.4-7.1-4.6-11.4c-0.2-3.7-0.3-7.3-0.4-11c-0.2-5.6-1-11.1-3-16.4c-0.6-1.5-1.3-2.9-2.3-4.2c-2.7-3.4-3.8-7.3-4.3-11.5
				c-0.3-2.4-0.6-4.8-1.3-7.1c-0.7-2.2-2-4.3-4.1-5.5c-2.6-1.6-3.6-3.9-3.7-6.8c0-2.8-0.7-5.5-1.8-8.1c-0.8-1.9-2-3.4-3.9-4.3
				c-1.9-0.9-3-2.5-3.5-4.6c-0.5-2.1-1.2-4.2-1.9-6.2c-0.9-2.4-2.2-4.3-4.3-5.9c-1.4-1-2.3-2.6-3.3-4c-0.7-1-1-2.2-1.6-3.2
				c-1-1.9-2.2-3.5-4.3-4.3c-1.8-0.6-2.9-1.9-3.5-3.7c-0.2-0.5-0.3-0.9-0.5-1.4c-0.9-2.5-2.4-4.4-5-5.1c-2-0.6-3.4-1.8-3.9-3.9
				c-0.7-3.4-3.2-5.1-6-6.3c-1.6-0.7-2.7-1.7-3.2-3.3c-0.9-2.9-3.1-4.3-5.6-5.1c-2.4-0.7-3.9-2-4.6-4.4c-0.8-2.6-2.7-4.3-5.3-5.1
				c-2.8-0.9-5.1-2.1-6.7-4.7c-1.3-2.1-3.6-3.1-5.7-4.2c-1.4-0.7-2.9-1.3-4.4-1.9c-2.1-0.8-3.9-2-5.1-4.1c-1.3-2.2-3.4-3.2-5.9-3.7
				c-3.1-0.6-6.2-1.4-9.3-2.3c-0.7-0.2-1.5-1-1.9-1.7c-1.7-3.5-4.7-5.1-8.3-5.9c-3.2-0.7-6.1-1.7-8.4-4.3c-1.7-1.9-3.9-3.1-6.4-3.6
				c-3.7-0.8-7.3-1.6-11-2.4c-2-0.4-3.8-1.1-5.2-2.7c-1.6-1.9-3.8-2.9-6.1-3.6c-4.2-1.4-8.5-2.1-13-2.2c-2.6-0.1-5.1-0.1-7.7-0.4
				c-3.8-0.4-7.3-1.6-10.1-4.4c-1.8-1.8-4.2-2.8-6.8-3.3c-6.1-1.3-12.2-1-18.4-1.4c-2.6-0.2-5.1-0.2-7.7-0.6
				c-4.6-0.6-9.2-1.3-13.7-2.1c-4.2-0.8-8.2-2-12.4-2.8c-3.8-0.7-7.5-1.6-11.4-1.2c-0.8,0.1-1.6,0.2-2.4,0.2c-1.2,0-2.4,0.1-3.5,0
				c-3.4-0.3-6.8-0.6-10.2,0.2c-0.5,0.1-1.1,0.3-1.6,0.3c-4.4-0.3-8.5,1.2-12.6,2.4c-3.6,1.1-7.2,1.9-11,2.1
				c-1.7,0.1-3.4,0.7-5.2,0.9c-5.5,0.4-11,0.7-16.5,0.9c-4,0.2-7.9,1.1-11.7,2.3c-1.2,0.4-2.4,1.1-3.2,2c-2,2.2-4.6,3.3-7.3,3.9
				c-2.8,0.6-5.7,1-8.5,1c-5.8,0-11.5,1-17,2.8c-1.2,0.4-2.4,0.9-3.4,1.7c-3.5,2.7-7.6,3.6-11.8,4.2c-4.2,0.6-8.3,1.3-12.5,2.1
				c-2.4,0.4-4.3,1.9-5.9,3.6c-2.8,3.1-6.6,3.7-10.4,4.3c-2.7,0.5-5.4,0.7-8.1,1.1c-2.4,0.4-4.3,1.9-5.4,4c-1.4,2.7-3.5,4-6.5,4.1
				c-2.4,0.1-4.8,0.5-7.1,0.9c-3,0.5-5.5,1.8-6.9,4.6c-1,2.1-2.5,3.2-4.7,3.6c-2.3,0.5-4.6,1-6.6,2c-1.7,0.8-3.4,2-4.4,3.5
				c-1.7,2.5-4,3.7-6.7,4.2c-3.2,0.6-5.3,2.5-6.2,5.4c-0.8,2.6-2.5,3.7-4.9,4.2c-2.7,0.6-5,2-7,3.9c-1.4,1.4-3.1,2.5-4.6,3.8
				c-0.7,0.6-1.5,1.2-2.2,1.9c-4.1,4-8.2,8.1-12.2,12.2c-1.6,1.6-3.2,3.1-4.7,4.8c-1.4,1.7-2.6,3.6-3.8,5.5c-0.8,1.3-1.7,2.5-3,3.3
				c-2.7,1.7-4.1,4.4-4.8,7.5c-0.4,2.1-1.4,3.8-3.6,4.5c-4.1,1.4-5.5,4.6-6.1,8.4c-0.3,1.9-0.7,3.8-1.1,5.7c-0.3,1.3-1,2.4-2.2,3
				c-3.7,1.9-5.2,5.1-5.9,9c-0.5,3.1-1.3,6.1-2.1,9.1c-0.2,0.8-0.8,1.6-1.3,2.3c-3.4,4.1-5.4,8.9-5.7,14.2
				c-0.4,6.8-0.6,13.6-0.8,20.4c-0.1,4.6-0.8,9-2.4,13.4c-0.6,1.6-0.8,3.4-1.1,5.1c-0.1,0.5,0.2,1.4,0.6,1.7
				c0.8,0.6,1.8,1.4,2.7,1.4c5-0.2,9.7-1.2,12.6-6c1.4-2.4,2.3-4.9,2.4-7.7c0.1-2.6,0.3-5.3,0.6-7.9c0.1-1.3,0.5-2.5,0.9-3.7
				c0.7-1.9,1.5-2.4,3.4-2.3c2.4,0,3,0.7,2.5,3.1c-0.4,2-0.8,4.1-1.5,6c-1,3.1-1.7,6.2-1.6,9.4c0,1.6,0,3.2,0,4.8
				c-0.1,3-1.1,5.6-3.4,7.6c-1,0.9-1.9,2.1-2.3,3.3c-1,2.9-2,5.8-2.5,9c-0.9,6-0.8,12.1-2.5,18c-0.3,1.1-0.3,2.2-0.5,3.3
				c-0.8,4.7-2.4,9.1-4.4,13.4c-0.6,1.2-0.8,2.6-1.1,3.9c-1.6,5.3-1.7,10.7-1.2,16.2c0.3,3.6,1.8,6.8,4.9,9c1.7,1.1,2.6,2.8,3.1,4.7
				c1,3.1,1.7,6.3,3.6,9.1c1,1.4,2,2.9,3.2,4.1c1.1,1.2,1.9,2.4,2.1,3.9c0.3,2.6,0.5,5.3,0.6,7.9c0.1,2.8-0.9,5.1-2.8,7.2
				c-2.8,3-4.1,6.8-4.8,10.8c-0.7,3.8-1.2,7.6-2.2,11.3c-0.5,1.8-1.6,3.5-2.8,4.9c-2.8,3.4-4.6,7.2-5.2,11.6
				c-0.5,3.5-1.7,6.6-4.4,9.1c-2.4,2.2-3.7,5.2-4.5,8.3c-1.8,6.9-0.3,5.1-5.8,10.3c-1.6,1.5-2.7,3.3-3.1,5.5
				c-0.9,4.9-2.1,9.8-2.8,14.8c-0.3,1.8,0.5,3.8,0.8,5.6c0.3,1.5,0.7,3,1.1,4.4c1,3.9,3.6,6.1,7.4,7.1c1.8,0.5,3.6,0.8,5.4,0.9
				c4.1,0.4,7.9,1.8,11.4,4c2.3,1.4,4.8,2.3,7.5,2.3c2.9,0,4.8,1.6,6.3,3.7c0.5,0.7,0.8,1.8,0.8,2.7c0,3.6,0.4,7.2-0.7,10.7
				c-0.4,1.3-0.5,2.8-0.6,4.3c-0.3,4.3,1.1,7.1,5.1,8.9c2.8,1.3,3.9,3.2,3.9,6.2c0,7.4,0,14.7,0.1,22.1c0,1.7,0.5,3.5,0.9,5.2
				c0.7,2.6,2.3,4.6,4.8,5.6c1.8,0.7,2.3,1.9,2.4,3.7c0.4,5.2,0.4,10.4,0,15.6c-0.2,2-0.8,3.9-2,5.6c-3.3,4.5-5,9.7-5.6,15.1
				c-1,8.2-0.5,16.5-0.5,24.7c0,3.2,1.2,5.9,2.6,8.6c0.5,0.9,1.3,1.6,2.2,2.2c1.3,0.8,2.2,1.8,2.9,3.1c1.5,2.9,3.7,5,7,5.8
				c1.6,0.4,2.9,1.2,3.5,3c1.2,3.6,4.2,5.1,7.7,5.7c0.5,0.1,1.1,0.1,1.7,0.1c7.4,0.2,14.9,0.4,22.3,0.5c9.4,0.1,18.9,0,28.3,0
				c15.8-0.1,31.5-0.3,47.3-0.3c4.1,0,8.1,0.5,12.2,0.9c2.1,0.2,3.9,1,5.6,2.5c3.3,2.9,7.3,4.6,11.7,5.2c3,0.4,5.4,1.7,7,4.5
				c0.6,1,1.4,2.1,2.4,2.6c3,1.7,4.7,4.3,5.7,7.4c0.8,2.6,2.4,4.3,4.8,5.3c2.4,1,3.3,2.8,3.5,5.5c0.3,5.6,1,11.1,1.1,16.7
				c0.2,6.5,0.1,13.1,0,19.7c0,1-0.1,2.1-0.2,3.1c-0.4,3.6-0.7,7.3-1.2,10.9c-0.2,1.9-1.3,3.2-3.1,3.9c-0.9,0.3-1.8,0.7-2.7,1.1
				c-1.9,0.8-3.2,2.1-3.9,4c-0.7,2.1-2.2,3.2-4.3,3.7c-2.4,0.6-4.8,1.4-7.2,2c-3,0.7-5.2,2.4-6.8,5c-1,1.7-2.4,2.2-4.2,2.7
				c-5.4,1.4-11,1.2-16.4,1.8c-1,0.1-2.1,0.2-3.1,0.4c-3.4,0.7-6.9,1.5-10.3,2.3c-0.8,0.2-1.6,0.4-2.3,0.8c-2.9,1.9-6,1.9-9.2,1.8
				c-1.7-0.1-3.3,0.2-4.9,0.9c-3.1,1.3-6.4,2-9.8,2c-15.6,0-31.2-0.1-46.8,0.1c-4.9,0-9.9,0.4-14.8,1c-3.2,0.4-6.2,1.7-8,4.7
				c-1.5,2.4-3.6,3.3-6.4,3.4c-3.4,0.1-6.8,0.5-10.2,1c-3.5,0.5-6.5,2.3-8.9,4.9c-2.2,2.4-4.9,3.7-8.1,4.2c-3.8,0.6-7.3,2.2-9.9,5.3
				c-1.3,1.5-2.9,2.5-4.8,3.1c-0.6,0.2-1.2,0.5-1.8,0.6c-3.7,0.8-6.1,3-7.3,6.5c-0.6,1.8-2.1,2.7-3.8,2.9c-4.2,0.5-7.5,2.7-10.3,5.6
				c-2.3,2.4-5,4.2-7.8,6c-1.4,0.9-2.8,2.1-3.9,3.5c-1.5,1.9-3.2,3.3-5.4,4.2c-0.7,0.3-1.5,0.6-2.2,0.9c-2,0.8-3.4,2.1-3.9,4.2
				c-0.6,2.1-2.1,3.5-4.1,4c-3.4,0.9-5.8,2.9-7.1,6.2c-0.2,0.6-1,1.3-1.7,1.6c-1.4,0.7-3,1.1-4.5,1.7c-3.1,1.3-6.1,2.7-8.1,5.7
				c-1.1,1.7-2.9,3-4.9,3.7c-3.3,1.1-6.1,2.9-7.1,6.5c-0.2,0.6-0.7,1.1-1.1,1.6c0-369.3,0-738.6,0-1107.8c1.4,0,2.7,0.1,4.1,0.1
				c18.7,0,37.4,0,56.1,0c218.8,0,437.6,0,656.4,0c1.3,0,2.6-0.1,3.8-0.1C3424.1-2170.9,3424.1-1833.3,3424.1-1495.7z"/>
			<path d="M3424.1-2508.5c-1.3,0-2.6,0.1-3.8,0.1c-218.8,0-437.6,0-656.4,0c-18.7,0-37.4,0-56.1,0c-1.4,0-2.7-0.1-4.1-0.1
				c0-0.4,0-0.8,0-1.3c240.2,0,480.3,0,720.5,0C3424.1-2509.4,3424.1-2509,3424.1-2508.5z"/>
			<path class="st0" d="M3159.1-1229.3c0.3-0.9,0.8-1.7,0.9-2.6c0.2-1.1,0.7-1.7,1.9-1.7c5.2,0,10.4,0,15.5,0c1.6,0,2.1,0.6,2.1,2.2
				c0,0.7,0.1,1.4,0.2,2C3172.9-1229.3,3166-1229.3,3159.1-1229.3z"/>
			<path class="st0" d="M3125.5-1229.3c2.7-3.2,6.1-5,10.3-5.1c4.1,0,7.5,1.6,9.9,5.1C3139-1229.3,3132.2-1229.3,3125.5-1229.3z
				 M3138-1230.2c-1.9-0.5-3.7-0.7-5.6,0.1C3134.3-1229.5,3136.1-1229.5,3138-1230.2z"/>
			<path class="st0" d="M3411.1-1229.3c2.8-3.4,6.4-5.2,10.8-5.1c0.7,0,1.4-0.1,2.1-0.2c0,1.3,0,2.6,0,3.8c-1.9,0.2-3.9-0.4-6.2,0.5
				c2.3,0.9,4.3,0.5,6.2,0.4c0.2,0.8-0.4,0.5-0.7,0.5C3419.3-1229.3,3415.2-1229.3,3411.1-1229.3z"/>
			<path d="M3424.1-1229.8c-1.9,0-3.9,0.5-6.2-0.4c2.3-0.9,4.3-0.3,6.2-0.5C3424.1-1230.4,3424.1-1230.1,3424.1-1229.8z"/>
			<path class="st0" d="M2814-2029c-0.5-0.5-0.9-1-0.9-1.1c0.2-0.4,0.6-0.8,1-1.1c0,0,0.6,0.4,0.6,0.5
				C2814.6-2030.1,2814.4-2029.7,2814-2029z"/>
			<path d="M3138-1230.2c-1.9,0.8-3.7,0.8-5.6,0.1C3134.2-1230.9,3136.1-1230.7,3138-1230.2z"/>
		</g>
	</g>
	<path d="M1352.9-1672.6c0-1.8,0-3.5,0-5.3c0.6-1.7,0.5-3.8,2.1-4.9c2.5-1.7,4.3-4,6.3-6.2c1.3-1.4,2.9-2.2,4.9-2.1
		c1.8,0.1,3.6,0.1,5.2,0.6c3.5,1,7,0.7,10.5,0.7c1,0,2.2-0.4,3.1-1c2.2-1.5,1.9-4.4-0.5-5.6c-0.7-0.4-1.5-0.6-2.2-0.9
		c-1.9-0.8-3.9-1.5-5.7-2.5c-2.6-1.4-4.8-3.4-6.1-5.9c-1.4-2.6-2.2-5.6-2.4-8.7c-0.2-3.6-0.9-7.3-1.4-10.9c-0.6-3.7-0.7-7.3,0-11
		c0.5-2.4,0.5-4.7,0.1-7.1c-0.3-1.7-0.5-3.6-0.2-5.2c0.9-4.6,1.5-9.3,1.7-14c0.1-1.9,0.6-3.8,1-5.6c0.3-1.5,1.4-2.5,2.7-3.2
		c1.5-0.7,3-1.5,4.6-2c2.1-0.6,4-1.6,5.4-3.3c1.1-1.3,1.7-1.2,3.1-0.3c2.8,1.8,4.5,4.1,4.3,7.7c-0.2,3.3,0,6.6,0,9.8
		c0,1.4,0.3,2.7,1.3,3.7c1.2,1.2,3.2,1.5,4.9,0.6c1.3-0.6,1.5-1.4,1.2-3.5c-0.4-2.1-0.7-4.3-1-6.4c-0.4-2.6,0.8-5.1,3-6.3
		c1.9-1,4.3-0.7,6.2,1c1.2,1.1,2,2.4,3.1,3.6c0.7,0.8,1.4,1.8,2.3,2.3c2.4,1.3,4.8,2.5,7.2,3.7c1.1,0.5,2.1,0.6,3.2,0.3
		c1.7-0.6,3.6-0.9,5.3-1.5c1.9-0.7,3.8-1.4,5.4-2.6c4.1-3.1,7.4-7,10.3-11.3c0.7-1,1.5-1.9,2.3-2.7c1.9-1.8,3.2-4,4-6.4
		c1-2.9,1.4-5.9,2.3-8.8c0.5-1.7,1.2-3.6,2.3-4.9c1.6-2,2.7-4.2,3.4-6.5c1.1-4,1.8-8.1,2.2-12.3c0.3-3.1,1.5-5.5,3.9-7.3
		c1.6-1.2,2.5-2.9,2.9-4.8c0.3-1.8,0.4-3.7,0.5-5.5c0.1-2,0.1-4,0.2-6c0.3-5.1,0.4-10.2,1.1-15.3c0.8-5.9,1-11.9,1.5-17.9
		c0.1-0.9,0.1-1.9,0.6-2.5c1.4-1.9,1.4-4,1.4-6.2c0.1-2.8,0.2-5.6,0.3-8.4c0.1-2.2,0.4-4.5,0.6-6.7c0.1-0.8,0.2-1.6,0.3-2.4
		c0.2-1.6,0.6-3.2,0.6-4.7c0.1-9.6,0.1-19.2,0.1-28.8c0-1.1,0.1-2.2,0.2-3.3c0.2-2.2,0.6-4.4,0.6-6.7c0.1-3,0-6.1,0-9.1
		c0-1.3,0.2-2.6,0.3-3.8c0.2-2.3,0.8-4.6,0.7-6.9c-0.2-6.3,0.4-12.6,1-18.9c0.2-2.5,0.7-4.9,0.8-7.4c0.2-5.8,0.1-11.5,0.2-17.3
		c0-1.2,0.3-2.4,0.7-3.5c1.2-3.5,3-6.8,3.8-10.3c1.2-5.5,1.8-11.2,2.7-16.8c1-6.1,0.7-12.3,1.8-18.3c0.5-2.5,1.3-4.7,3-6.3
		c2.7-2.6,3.9-5.7,3.8-9.5c-0.1-3.7,0.2-7.3,1.2-10.9c0.4-1.6,1-3.3,1.1-4.9c0.2-2.8,1.5-4.8,3.4-6.6c0.5-0.5,1.1-1,1.3-1.7
		c1.1-3.4,2.2-6.9,3-10.3c0.3-1.4,0.8-2.6,2-3.4c0.7-0.5,1.4-1.1,2.2-1.5c1.1-0.6,1.7-1.5,2.3-2.6c1.5-2.8,1.9-5.9,2.6-8.9
		c0.7-2.7,1.8-4.9,4.7-5.8c1.3-0.4,2-1.4,2.5-2.7c0.6-1.9,1.2-3.8,2.2-5.6c1-1.9,2.2-3.8,3.8-5.1c2.1-1.7,3.5-3.6,4.5-6.1
		c0.6-1.5,1.3-3.1,3-3.9c3-1.5,4.9-4,6.1-7.1c0.9-2.4,2.5-4.1,4.7-5.1c1.6-0.7,2.4-1.8,2.9-3.5c0.7-2.4,2.1-4.6,4.5-5.5
		c2-0.8,3.3-2.1,4-4.1c0.5-1.4,1.4-2.3,2.7-2.9c1-0.5,2.1-0.9,3.1-1.3c2.1-0.8,3.7-2.1,4-4.4c0.4-2.9,2.2-4.5,4.7-5.6
		c1-0.4,1.6-1.1,2.1-2.1c1.4-2.6,3.2-4.7,6.3-5.4c2.1-0.5,3.7-1.7,4.6-3.8c1.1-2.5,2.9-4.3,5.7-5.1c2.4-0.7,4.4-2.2,5.5-4.7
		c0.9-2.1,2.6-3.2,4.6-3.9c2.8-1.1,5.4-2.7,7.7-4.8c2.2-2.1,4.5-4.3,7.8-4.8c1.8-0.3,3.5-1.1,4.6-2.8c1.7-2.8,4.4-4,7.4-5
		c3.9-1.2,7.7-2.6,10.3-6.2c0.8-1.1,2.3-1.8,3.6-2.2c2.9-0.9,5.9-1.6,8.8-2.3c1.9-0.5,3.5-1.3,5.1-2.6c2.7-2.2,5.5-4.1,9.1-4.6
		c3.5-0.5,6.9-1.1,10.4-1.7c2.8-0.5,5.3-1.4,7.4-3.6c1-1.1,2.4-2.1,3.8-2.4c4.2-0.9,8.5-1.5,12.7-2.3c2.3-0.4,4.5-0.9,6.7-1.8
		c2.8-1.1,5.4-2.7,8.4-3.3c1.7-0.3,3.5-0.6,5.2-0.9c4.2-0.7,8.3-1.6,12.5-2.1c4.4-0.5,8.9-0.8,13.4-1.1c0.6,0,1.1-0.1,1.7-0.2
		c2-0.2,4-0.6,5.9-0.6c8.9,0.2,17.7-0.6,26.6,0.7c5.7,0.8,11.5,0,17.2,1c3.9,0.6,7.9,0.2,11.9,1c4,0.8,8.1,1.1,12.1,1.7
		c0.7,0.1,1.4,0.7,2.1,1c2.6,1.2,5.1,2.9,7.8,3.5c4.8,1.1,9.8,1.5,14.6,2.3c2.9,0.5,5.6,1.2,7.2,4.2c0.6,1.1,1.9,2,3.1,2.6
		c1.6,0.7,3.4,1,5.1,1.3c2.4,0.4,4.8,0.5,7.1,1.1c3,0.8,5.8,2,8.3,4.1c1.5,1.2,3.3,2.2,5.2,2.9c3.4,1.2,6.9,2,10.3,3.1
		c1.3,0.4,2.8,0.9,3.5,1.9c2.3,2.9,5.4,4.1,8.8,4.9c3,0.7,6,1.9,8,4.2c2.3,2.6,5,3.8,8.2,4.6c0.4,0.1,0.8,0.2,1.1,0.3
		c2.8,1,5.5,2.2,7.1,4.9c0.4,0.7,1.2,1.3,1.9,1.7c2.8,1.6,5.6,3,8.4,4.5c0.8,0.4,1.6,0.9,2,1.6c1.7,2.7,4.2,4.1,7,5.3
		c2.2,1,3.9,2.5,4.9,4.7c0.9,1.9,2.4,3.3,4.4,3.8c2.6,0.7,4.2,2.6,5.4,4.8c1,1.8,2.3,3.2,3.8,4.6c1.2,1.2,2.5,2.6,3.1,4.1
		c1.2,2.6,2.6,4.9,4.6,7c2.7,2.8,4.9,5.8,6,9.6c0.7,2.3,2,4.3,4,5.9c1.5,1.2,2.7,2.9,3.6,4.7c1.4,2.6,2.9,5.2,5,7.2
		c2.8,2.6,4.5,5.7,5.1,9.5c0.3,2.2,1,4.5,3,5.8c1.9,1.3,3,3,4,4.9c1,1.9,2.1,3.8,2.6,5.9c0.7,2.8,1.8,5,4.4,6.5
		c0.8,0.4,1.5,1.3,1.8,2.1c1.4,3.8,2.6,7.7,3.9,11.6c0.4,1.1,0.8,2.3,1.6,3.2c2.5,3,3.8,6.5,4.5,10.2c0.7,3.8,1.1,7.6,1.2,11.4
		c0.1,3.8,1.3,6.8,4.4,9.1c1,0.7,1.8,1.9,2.2,3c0.8,2.7,1.4,5.4,2,8.1c0.6,3,1,6,1.7,9c0.4,1.9,1,3.7,2.4,5.1
		c1.7,1.6,2.3,3.7,2.3,6.1c0,3.7-0.3,7.5,0.7,11.2c0.2,0.6,0.2,1.3,0.1,1.9c-0.3,3.6-0.6,7.1-1,10.7c-0.2,1.5-1,2.9-2.3,3.8
		c-2.4,1.7-3.4,4.2-3.7,7c-0.4,3.9,2.1,6,6,5.1c1.2-0.3,2.3-0.7,3.4-1.1c2-0.6,5.1,0.6,6.1,2.4c0.2,0.3,0.3,0.8,0.2,1.1
		c-0.5,2.4-0.9,4.9-2.7,6.8c-1,1.1-2.1,2.3-2.7,3.6c-1.2,2.6-3.2,3.8-5.9,4.2c-3.1,0.6-6.3,1.3-9.4,1.9c-1.6,0.3-2.5,1.3-2.9,2.8
		c-0.7,2.7-1.1,5.5-0.8,8.3c0.5,4.3,0.9,8.6,4.4,11.8c1,0.9,1.8,2.4,2.1,3.7c0.9,4.1,1.4,8.3,2.1,12.5c0.6,3.6,1.6,7,3.9,9.9
		c0.9,1.2,1.7,2.5,2.2,3.9c0.9,2.4,1.5,4.9,2.1,7.4c1.1,4.1,2.4,8,5.6,11c0.7,0.6,1.2,1.5,1.5,2.4c1,2.9,2,5.9,2.9,8.9
		c0.8,2.4,1.6,4.7,4.1,5.9c0.6,0.3,1.2,1,1.4,1.6c0.8,2.4,1.9,4.8,2.2,7.3c0.6,3.7-1.1,6.7-4.1,8.9c-1.2,0.9-2.1,1.9-2.8,3.2
		c-1.8,3.2-4.6,5-8.2,5.6c-2,0.3-4,0.6-5.9,1.1c-0.9,0.3-2,0.8-2.6,1.5c-2,2.5-4.5,4.4-7.5,5.3c-2.4,0.7-3.8,2.3-4.9,4.6
		c-1.1,2.3-2,4.7-3.9,6.6c-0.3,0.3-0.5,1-0.5,1.5c0.3,1.7,0.5,3.5,1,5.2c1,3.3,2.2,6.5,3.3,9.8c0.3,1,0.5,2.3,0.2,3.3
		c-1,2.5-1.8,5.1-4.3,6.7c-0.7,0.4-1.2,1.2-1.6,2c-1.4,2.7-3.2,4.8-6.2,6c-2.7,1-3.1,2.7-1.6,5.1c1,1.6,1.9,3.1,3,4.6
		c0.8,1.1,1,2.1,0.8,3.4c-0.1,1-0.2,1.9-0.3,2.9c-0.5,2.9-1.1,5.5-4.1,7.3c-2.5,1.5-5,3.1-7.6,4.4c-0.8,0.4-1.7,1-2.1,1.8
		c-1.6,3.1-3.8,5.5-7.1,6.9c-1.3,0.5-1.9,1.6-2.3,2.9c-1.4,4.7-1.7,9.5-1.4,14.2c0.4,6.6,0,13.1-0.7,19.6c-0.3,2.6-1.3,5-3.6,6.5
		c-1.4,0.9-2.2,2.2-2.9,3.7c-1.3,3.1-3.4,5.3-6.6,6.5c-1.2,0.5-2.3,1.5-3,2.5c-1.2,1.7-2.7,3-4.7,3.4c-1.8,0.4-3.6,0.8-5.4,1
		c-4.4,0.6-8.8,0.6-13.2,0c-3.7-0.5-7.5-0.8-11.2-1.2c-2.1-0.2-3.8-1-5.3-2.6c-1.5-1.6-3.2-2.9-5.5-3.3c-4.6-0.8-9.2-1.3-13.7-2.2
		c-2.9-0.6-6.1-0.6-8.7-2.4c-3-2.1-6.1-3.7-9.9-4c-0.5,0-1.1-0.3-1.6-0.5c-2.2-0.9-4.4-1.2-6.8-1.2c-1,0-2.1,0-3.1-0.1
		c-5.4-0.7-10.7,0-16,0.2c-0.8,0-1.6,0.3-2.3,0.6c-2.9,1.1-5.3,3-7.4,5.2c-1.8,1.9-3.7,3.5-5.9,4.8c-1.6,1-2.6,2.3-3.2,4
		c-0.7,2.1-1.4,4.3-1.7,6.5c-0.5,3.5-1.5,6.8-1.4,10.4c0.2,5.8,1,11.5,2.2,17.1c0.6,2.6,1.4,5.4,3.7,7.1c2.4,1.8,4,4.2,4.9,7
		c0.9,2.7,2.4,4.4,5,5.4c1.5,0.6,2.6,1.7,3.1,3.2c0.9,2.7,2.8,4.1,5.4,5c2.5,0.9,4.7,2.3,6.1,4.8c0.4,0.7,0.9,1.4,1.6,1.8
		c2,1.1,4.1,2.2,6.2,3c2.8,1.2,5.7,2.3,7.9,4.5c1.4,1.4,3,2.3,4.9,2.8c3.5,1,6.8,2.4,9.3,5.2c1.8,2,3.8,3.3,6.4,4
		c2.6,0.6,5.2,1,7.7,1.8c3.1,0.9,6.1,1.7,7.9,4.9c0.4,0.8,1.5,1.4,2.5,1.7c3.2,0.9,6.5,1.7,9.8,2.3c3.4,0.6,6.3,1.9,8.8,4.1
		c2.6,2.3,5.7,3.4,9.1,3.8c4.2,0.5,8.1,1.7,11,5.2c1.5,1.9,3.6,2.6,5.9,2.8c3.4,0.4,6.9,0.3,10.2,1.1c4.2,0.9,8.2,2.5,12.3,3.8
		c0.4,0.1,0.7,0.4,1,0.6c1.6,1.4,3.4,2,5.4,2.3c3.9,0.5,7.8,0.8,11.7,1.3c1.9,0.2,3.8,0.7,5.7,0.9c3.2,0.4,6.5,0.7,9.7,1.2
		c1.1,0.2,2.1,0.6,3.2,0.9c1.4,0.3,2.8,0.6,4.2,0.9c3.4,0.7,6.9,1.3,10.3,2c1.8,0.3,3.6,0.9,5.4,0.9c6.5,0.1,12.9-0.3,19.4,0.9
		c1.5,0.3,3,0.3,4.2,1.4c0,118.6,0,237.1,0,355.7c-240.2,0-480.3,0-720.5,0c0-104.6,0-209.3,0-313.9c0.3-0.6,0.7-1.3,1.2-2.3
		c0.9,2.8,2.3,4.5,4.2,5.7c1.7,1.1,2.8,2.5,3.7,4.3c1,2.3,2.8,4,5.1,4.9c1.6,0.7,2.6,1.7,3.5,3.1c0.5,0.7,1,1.5,1.5,2.2
		c1,1.5,2.4,2.3,4.3,2.2c1.8,0,3.7,0.2,5.5-0.1c3.6-0.5,7-1.4,9.8-4c1.2-1.1,2.4-2.3,3.8-2.9c2.9-1.2,5.9-2.2,9-2.1
		c3.5,0.1,6.4-1.1,8.3-4.2c0.9-1.4,2.2-2.5,3.9-3.1c1.7-0.6,3.5-1.2,5.2-1.8c0.4-0.2,1-0.3,1.3-0.5c0.4-0.3,1-0.8,0.9-1.2
		c0-0.4-0.6-1-1-1.1c-1.8-0.4-3.6-1-5.4-1c-3.8-0.2-7.7,0-11.5-0.1c-2.1-0.1-4.3-0.4-6.4-0.8c-2.8-0.5-5.4-1.7-7.2-4
		c-1.2-1.6-2.8-2.5-4.7-3.2c-2-0.7-4.2-1.2-6.1-2c-2.5-1-4.9-2.3-5.9-5.2c-0.3-0.9-1-1.9-1.8-2.5c-1.5-1-2.6-2.4-3.4-4
		c-1.3-3-3.7-5-6.4-6.6c-2.1-1.3-3.7-3-4.8-5.2c-0.8-1.5-1.7-3.2-3-4.3c-2-1.7-3-3.8-3.7-6.2c0-6.4,0-12.8,0-19.2
		c1.5-3.7,4.5-3.3,6.7-1.4c0.7,0.6,1.3,1.4,1.9,2.1c0.4,0.6,0.7,1.2,1.1,1.9c1.1,1.8,2.6,2.8,4.7,2.7c1.4,0,2.7,0,4.1,0
		c9.3,0,18.7,0,28,0c2.8,0,5.4-0.6,7.9-1.6c0.9-0.4,1.6-1,1.6-2.2c-0.1-1.1-0.7-1.7-1.7-2.1c-0.4-0.2-0.9-0.3-1.4-0.4
		c-3.3-0.2-6.7-0.7-10-0.4c-5.6,0.4-10.6-1.7-15.9-3c-0.1,0-0.3-0.2-0.4-0.2c-3-1.4-5.9-2.7-8.9-4c-1.8-0.8-3.7-1.5-5.4-2.5
		c-1.5-0.9-3.2-2-4.2-3.5c-2.8-4-5.4-8.2-8.1-12.4c0-10.7,0-21.4,0-32.2C1353.3-1669.7,1353.3-1671.1,1352.9-1672.6z M1356.3-1668.5
		c0,0.1,0,0.2,0,0.2c0,0,0.1,0,0.2,0c0-0.1,0-0.2-0.1-0.3C1356.4-1668.5,1356.4-1668.5,1356.3-1668.5z"/>
	<path class="st0" d="M2648.9,336.2c0.4,1.4,0.5,2.9,0,4.3C2648.9,339.1,2648.9,337.7,2648.9,336.2z"/>
	<path class="st0" d="M2652.3,340.3c0.1,0,0.1-0.1,0.2-0.1c0,0.1,0,0.2,0.1,0.3c-0.1,0-0.2,0-0.2,0
		C2652.3,340.5,2652.3,340.4,2652.3,340.3z"/>
</g>
<g id="Layer_2">
	<path class="st1" d="M176,175.5c-14.8-4.5-22-9-27.4-19.7c-2.3-4.6-4.3-10.8-4.5-21.2c0-2.7,1.2-6.6,2.5-9c-0.5,1-0.6,2.7,0.1,3.9
		c0.2-3.1,1.8-6.1,1.8-7.8c0.2,0.1,1.6,1.9,1.8,2.1c-0.2-1.8,0.7-4,0.7-7.1c0.2-3.4,0.7-3.6,0.3-5.6c0.6,0.9,1,1,1.1,2.4
		c1-2.2,0.6-6.8,0.4-8.8c0.3,0.5,0.9,1.1,1,1.7c0.4-2.4,0.2-5.1,0.7-7.5c0.1,0.5,0.6,0.8,0.4,2.6c1.2-1.3,0.7-6.6,1.5-8.4
		c0,0.7,0.5,1,0.4,2.5c1.1-9.6,2.4-6.1,3.1-15.3c0.5,1.6,0.6,3.7,0.3,4.7c1.3-2.1,0.6-6.5,0.9-9c0.7-5.1-0.4-10.6-1.9-15.5
		c-0.9-2.9-1.3-6-1.4-8.8c-0.2-4.2-2.8-8.2-4.6-11.8c-2.8-5.6-6.7-12.1-11.8-15.9c-2.6-1.9-5.1-3.9-7.7-5.7c-2-1.4-4.8-3.3-7.4-3.9
		c-1.3-0.3-2.6-0.9-3.8-1.2c-2.2-0.6-4.6-0.8-6.8-1.3c-4.7-1-9.3-1.7-14.1-1.7c-7.4,0.1-16.1,0.8-23.3,2.1c0.1,0.2,1.2,0.2,1.4,0.4
		c-2.4,0.6-5.7,0.8-7.8,1.6c0.2,0.2,0.9,0.7,1.2,0.9c-5.2,0.7-8.9,1.8-13,3.4c0.4,0.1,0.9,0.1,1.3,0.2c-3.6,1-5.7,2.9-8.1,4.3
		c-3.3,1.9-6.5,2.6-8.3,4.8c-3.2,3.7-6.5,3.9-8.8,8.7c-3.6,2.5-5.5,11.1-5.7,14.4c0.4-1.3,1.4-2.8,2.4-4.2c-1.2,4-1.1,7.7,0.3,11.6
		c-0.2-4.2,1-8.7,4-11.8c-0.6,1.4-0.5,3.1-0.3,4.6c1-1.8,1.8-3.1,3.4-4.6c-1.3,2-3.7,5.5-4.3,9.5c-0.9,6.1-0.1,6.9-1.5,11
		c-0.4,1.2-1.4,3-1.5,5.5c-0.2,0.4-0.4,1.2-0.5,1.4c-0.4,0.4-0.3,1.6-0.2,2.5s2.8,3.7,3.4,5.3c-0.1,0.4-1,2-1.5,3.1
		c-3.3,4.8-6.2,13.7-7,16.5c-0.6,2.3-2.4,3.2-2.5,3.9c-0.7,5.3,3,7.3,4.6,6.9c2.3-0.9,7.2-1.1,7.5,0.9c0.8,5.5-2.3,8.9-2.6,9.5
		c0.3,2,3,3.9,4.1,5.8c0,0.5-0.4,2.5,0.1,4.3c0.1,1,4.9,2.6,5.9,4.6c0.8,1.5-0.6,6.6-0.2,8.5c0.4,1.8,5.7,5.3,8.2,5
		c1.9-0.2,16.1-4.6,19.6-8.2c0,0,0.2,10.8,0.5,12.3s2.8,6,3.6,7.6c0.5,1.1,1.4,4.9,1.1,6.3C77,170.6,74.1,175,62,175
		c-15,0-26.7-0.7-33,5c-5.3,4.8-8.6,20-8.6,20l179.7,0c0,0,0-14.2,0-19.6C197.4,179.5,182.7,177.6,176,175.5z"/>
	<g>
		<rect y="0" class="st2" width="200" height="200"/>
		<path class="st3" d="M5.7,200c0,0,0.5-1.3,2.7-4.2c7.1-9.3,28.4-20.3,49.4-20.5c14.8-0.2,20.2-5.1,20.7-5.8
			c0.9-1.2,2.6-3.7,2.4-7.6c0-0.8-0.5-7-1-8.3c-0.8-1.8-1.4-2.9-3.4-3.8c-2.8-1.2-7-0.5-12-0.5c-3.6,0-7.3,0.2-10.9,0.1
			c-5.2-0.1-11.1-1.2-12.9-7.4c-0.7-2.4,0.8-4.7,2-6.8c0.7-1.1,1.1-3.5,0.9-5.5c-0.2-2.2-1.9-2-2.5-4c-0.8-2.5-0.4-2.4,0.7-3.4
			c0.5-0.5-3,0.8-2.9-4.4c0-1.2,1.4-1.3,1.5-1.9c0.5-1.6,0.1-2.6-1.1-3.1c-2.1-0.7-4.2-1-6.2-1.5c-2.5-0.6-3.6-1.2-3.1-3.3
			c0.6-2.6,3.7-6.5,5-9.6c1.4-3.4,3.5-7.8,4.5-10.5c1.3-3.2-0.3-6.4-1.8-7.8c-0.9-0.9-2.3-1.5-2.4-2.3c-0.2-3,1.1-5.6,1.5-6.9
			c1.4-4.1,0.6-4.9,1.5-10.9c0.6-4,2.5-7,3.8-8.7c-2,0.7-3.4,2.3-4,4.1c-0.3-1.5,0.5-3.5,1.4-4.8c-3,3-4.2,7.5-4,11.6
			c-1.3-3.9-1.5-7.5-0.3-11.5c-1,1.3-2,2.8-2.4,4.1c0.2-3.2,2.1-11.7,5.6-14.2c2.3-4.7,5.5-4.9,8.7-8.6c1.8-2.1,5-2.8,8.2-4.7
			c2.3-1.4,4.5-3.2,8-4.3c-0.4-0.1-0.9-0.1-1.2-0.2c4.1-1.6,7.7-2.7,12.9-3.4c-0.3-0.2-1-0.7-1.2-0.9c2.1-0.9,5.4-1,7.7-1.6
			C81.2,17,80.1,17,80,16.8c7.1-1.3,15.7-2,23-2.1c4.7,0,9.3,0.6,13.9,1.7c2.2,0.5,4.5,0.7,6.7,1.3c1.2,0.3,2.4,0.9,3.7,1.2
			c2.5,0.5,5.3,2.4,7.3,3.8c2.5,1.8,5,3.8,7.6,5.6c5.1,3.7,8.9,10.2,11.7,15.7c1.8,3.6,4.4,7.5,4.5,11.6c0.1,2.7,0.5,5.8,1.4,8.7
			c1.5,4.9,2.5,10.3,1.8,15.3c-0.3,2.4,0.4,6.8-0.9,8.8c0.3-1,0.2-3.1-0.2-4.7c-0.7,9.1-1.9,5.6-3,15.1c0.1-1.4-0.4-1.8-0.4-2.5
			c-0.7,1.8-0.3,7-1.5,8.3c0.2-1.8-0.3-2.1-0.4-2.6c-0.5,2.4-0.3,5.1-0.7,7.4c-0.2-0.6-0.8-1.2-1-1.7c0.2,1.9,0.6,6.5-0.3,8.7
			c-0.1-1.4-0.4-1.5-1-2.4c0.5,2,0,2.2-0.3,5.6c0.1,3.1-0.8,5.2-0.7,7c-0.3-0.2-1.6-2-1.8-2.1c0,1.6-1.6,4.6-1.8,7.7
			c-0.7-1.2-0.6-2.8-0.1-3.8c-1.3,2.3-2.7,6.2-2.5,8.9c0.5,7.6,3.2,13.3,7.5,17.9c13.4,14.2,24.2,19.3,30.7,22.2
			c6.5,2.9,14.2,5.9,16.8,6.7c0,5.3,0,15.9,0,15.9H5.7z"/>
	</g>
	<path class="st4" d="M27.7,200c0.1-2,0-6.9,0.7-10.9c0.5-2.9,1.1-6.1,3.1-9.7c-2.5,1.2-5.9,1.6-8.6,1.4c-4.4-0.4-8.7-2.2-11.2-5.9
		c-1.3-1.9-2.5-6.8,0.1-10.3c0,0.8-0.2,2.3,0.4,3.1c0.8,1.1,2,2.3,4.4,2.5c3.4,0.4,5.6-0.4,7-1.4c1.9-1.3,3.5-3.2,5.1-6.5
		c-2,1.6-4.9,2.3-7.1,2.5c-4,0.4-7.5-1.3-9.9-4.4c-1.8-2.3-3.4-7.1-2.3-10.1c0.1,1.9,2.6,3.4,4.4,3.1c-3.1-0.9-3.5-4.3-2.8-6
		c0.1,0.7,0.5,1.5,0.8,1.8c0.6,0.6,1.5,1.1,1.9,1c-1.3-1.5-1.3-3.6-0.8-5.7c2.8,5.2,7.6,6.7,11.3,3.8c-1.6,0.4-4.4-0.1-5.4-0.7
		c-1.2-0.7-2.3-2-3.2-3.1c-3.1-3.8-3.9-10-1.4-14.2c0.9-1.5,2.2-2.8,3.8-3.5c-2.9,3.8-0.3,9.8,4.2,8.4c-2.6-1.5-2.5-6.1,0-7.9
		c-0.5,1.4,0.2,3.4,1.2,4.4c0.4,0.5,1.2,0.9,2.6,0.9c2.3,0,12.7-3,12.7-28.3c0-14.8,0.3-37.9,6.3-50.6c7.3-15.5,19.7-31.6,43.6-38.7
		c17.6-4.9,42.3,0.6,49.9,3.7c7.5,3.1,20.5,6.5,23.1,21.5c0.6,3.3-0.7,5.1-0.7,5.1c1,1.8,3,5.1,3.7,7.3c1.4,4.4,2.2,8.6,3.6,13.2
		c0.4,1.3,1,3.9,0.7,5.2c-0.3,1.5-1.5,2.8-2.3,4.2c-1.1,1.8-2.7,3.7-2.7,5.9c0,1.2,0.4,2.5,0.9,3.7c0.9,2.2,2,3.4,2.9,5.5
		c1,2.3,2.7,5.1,3.4,7.6c0.5,1.8,2.5,2.9,2,5.5c-0.2,1-0.4,2-1.2,2.4c-1.2,0.5-3.3,0.8-4.5,0.6c-2.5,0-3.6,0.8-4,3.4
		c-0.2,1.1-0.2,2.3,0.2,3.4c0.3,0.9,1.1,1.8,0.7,2.9c-0.4,1.1-1.7,1.4-2.5,2.1c-1.2,1-0.3,1.3,0,2.8c0.4,1.9,0.1,2.9-1.6,3.9
		c-2.1,1.1-3.3,2.3-3.2,4.8c0.1,2.9-0.3,6.5-1.5,8c-1.1,1.4-1.8,1.7-4,2.6c-2.8,1-6.5-0.1-8.9-1c-1.6-0.6-4.5-1.7-6-2.2
		c-3.1-1.1-8.4-2.9-11.9-1.6c-2.2,0.8-2.4,6.5-2.7,10.2c-0.2,2.2,0.1,8.1,1.4,9.7c0,0,11.5,14.5,37.4,18.8c23,3.8,25.6,15.2,27,18.9
		c1.7,4.6,1.5,6.8,1.5,6.8H27.7z"/>
	<path class="st4" d="M27.5,200c0-1.4,0-2.1,0.4-2.9c0.9-2.3,3.7-3.1,3.7-3.1c-0.2-2.7,0.4-5.2,2.9-7.5c1.4-1.3,2.6-2,4.6-2.3
		c0,0,1.9-1.8,2.7-2.8c2.4-2.6,4.7-5.4,6.9-8.2c1.9-2.5,4.1-4.7,6.3-6.9c1.3-1.3,3.8-3.5,4.3-5.2c-1.5-0.2-4,0.2-5.2-0.6
		c-1.2-0.8-2.1-2.5-3.4-3.5c-1.4-1-2-1.4-2.9-2.6c-0.8-1.1-2-1.1-2.7-2.3c-0.5-0.9-0.9-3.2-1.3-3.5c-3.1-2.6-1-8-0.1-11.3
		c0.9-3.1-0.3-5.1-0.6-8.1c-0.3-2.7,1.2-5.5,2.3-7.9c1.2-2.8-0.2-4.3-0.9-7c-0.3-1.3-0.5-4.7-0.9-5c-0.3-0.4,0.2-2.4,0.2-4.4
		c0-0.4,0.3-1.2,0.6-1.5c0.2-1.1,1.3-1.6,2.9-2.7c1.2-0.8,3.4-2.5,3.6-4c0.1-0.7,0.3-1.4,0.4-2.2c0-0.7,0-1.4,0.1-2.1
		c0-0.9-0.1-1.6,0-2.4c0.3-0.3,0.2-2.1,0.3-2.6c0.1-1,0.1-1.9,0-2.9c-0.1-1.4-0.2-2.7-0.3-4c-0.1-0.9-0.4-1.8-0.4-2.8
		c-0.1-1.9,0.1-3.5-0.2-5.4c-0.4-2.7,0.8-5.6,1.4-8.2c0.4-1.7,0.9-3.4,1.5-5.1c0.4-1.2,0.4-2.4,0.9-3.5c0.4-1.1,0.9-2.1,1.4-3.2
		c0.4-1,0.8-2.1,1.4-3c0.8-1.2,1.5-2.6,2.1-3.9c1.2-2.3,2.3-4.2,3.7-6.3c0.7-1.1,1.8-2.8,2.8-3.6c0.8-0.7,1.5-1.7,2.3-2.4
		c0.8-0.7,1.3-0.8,2-1.6c2.1-2.3,4.3-3.5,6.9-5.2c1.1-0.7,2.6-1.6,3.8-1.9c0.8-0.2,1.6-0.7,2.5-0.8c0.3-0.3,1.8-0.5,2.2-0.7
		c0.6-0.2,1.2-0.5,1.8-0.8c1.4-0.7,3.1-1.4,4.8-1.9c4.2-1.1,7.3-0.8,12.5-0.4c1.5,0.1,3.4,0.4,4.8,0c1.1-0.3,2.8-0.7,3.3-0.8
		c0.5-0.1,3-0.5,3-0.5c1.8-0.2,3.6-0.4,5.3-0.4c2,0,4-0.7,6-0.8c2.1-0.2,4.2,0,6.3,0.3c1.3,0.1,2.8,0.4,4,0.9
		c0.9,0.4,1.6,1.5,2.6,1.5c2.3,0.1,5.2,0.3,6.9,2.1c1.6,1.8,3.4,3.6,4.3,5.9c0.5,1.3,0.5,2.8,0.9,4.1c0.2,0.8,0.5,1.4,0.4,2.3
		c0,0.8-0.2,1.6-0.1,2.4c0,0.6,0.2,1,0.2,1.6c-0.1,1-0.6,2.4-1.5,3c0.4,0.5,0.7,1.2,1,1.8c1,1.9,2.1,4.1,3.1,6.1
		c0.6,1.3,1,2.7,1.2,3.9c0.3,1.7,0.4,3.4,0.8,5c0.3,1.3,0.6,2.9,0.7,4.1c0.1,1,0.2,1.7,0.2,2.8c0,1.3,0.3,2.4,0,3.2
		c-0.4,0.9-1.2,1.3-1.5,2.2c-0.3,0.9-0.1,2.1-0.1,2.9c0,1,0.3,1.8,0.6,2.7c0.7,2.1,2.1,4,3.7,5.6c1.9,1.9,4,3.9,5.7,6
		c0.8,1,2.6,2.7,2.6,4.2c0,1.5-1,2.4-1.6,3.2c-0.8,1.1-1.5,1.9-2.7,2.7c-1.1,0.8-3.1,1-3.1,2.7c-0.1,1.5,0.1,3.3,1,4.6
		c0.4,0.6,1,0.8,1.2,1.6c0.1,0.9-0.5,1.7-1.1,2.3c-0.7,0.7-2.1,0.9-3,1.3c1.2,0.6,3,1.8,3,3.3c-0.1,1.7-1.1,2-2.4,2.7
		c-0.8,0.4-1.3,1.3-1.5,2.2c-0.2,1.1,0,1.9,0.4,2.9c0.4,0.8,0.8,1.6,0.9,2.5c0.2,2.1-0.2,4.8-1.1,5.8c-0.8,0.8-2,1.4-3.9,2
		c-2.2,0.7-6.6,0.8-7.7,0.7c-3.4-0.1-7.7-0.6-10.4-0.4c-2.5,0.2-12-1.4-15.7,21.9c-0.3,1.9-0.6,3.9-1,5.9c-0.2,1.2-0.4,2.2-0.5,3.4
		c0,0,0.2,0,0.3,0c1.1,0,2.3,0.2,3.4,0.4c1.1,0.2,2.3,0.4,3.4,1c1.6,0.8,2.9,1.6,4.3,2.6c2,1.4,3.1,2.6,5.1,4
		c2.4,1.6,5.1,3.7,7.2,6.3c3.7,0.2,8.2,4.2,9.6,7.7c0.8,2,1.1,4.1,1.9,6.2c0.9,2.5,1.4,6.2,1.5,8.9H27.5z"/>
	<g class="st5">
		<path class="st6" d="M155.5,200c-2.5-1.4-3-2.1-5.1-4.1c-3.2-3-6.5-6-10.2-8.2c-6.4-3.7-14.6-5.3-20.1-10.5
			c-4.9-4.6-4-13.5-1.4-19.1c1.3-2.9,3.6-5.7,5.3-8.4c1.8-2.8,4.6-2.3,7.4-1.5c3.6,1,10.7,1.9,13.7,2.1c3,0.2,9,0.1,11.4-1
			c1.2-0.6,2.1-2.2,2.5-3.8c0.5-2-0.2-4.6-0.8-6c-1.1-2.6,3.1-2.6,4.2-3.9c1.9-2.1-0.4-2.8-0.9-5.2c2.1-0.2,5.5-1.6,5.3-3.9
			c-0.1-1.7-2.6-3.8-1.7-5.7c1.4-3.1,7.9-1.1,8.5-5.7c0.5-3.8-3.6-7.2-5.1-10.4c-1.6-3.6-2.7-6.2-2.2-9.6c0.7-1.8,2.5-2.2,2.4-4
			c-0.2-2,0.3-5.4,0.2-7.2c-0.1-1.3-0.4-2.2-0.7-2.9c3.1,0.8,6,5.9,5.6,8.7c1.5-4.3,0.3-9.9-0.9-13.4c-0.6-1.8-1.3-3.2-1.5-3.5
			c-0.7-1.2-1.5-2.2-2.1-3.2c3.5,3.8,6.1,6.5,6.9,12.1c1.1,7.4,0.5,10.3-1.4,17.1c1.4-2.6,2.6-4.1,3.6-6.6c1.8-4.3,2.6-7.4,1.5-12.8
			c-1.4-7-3.4-9.6-4.9-12.4c0,0-1.5-2.5-1.7-3c0.8,1.2,1.5,1.8,2.7,3.5c2.3,3.3,2.9,3.9,4.3,7.9c0.7,2.1,0.9,3.1,1.1,5.8
			c0.3,3.1-0.3,9.7-1.5,13.9c1.4-3.2,3.4-5.6,3.8-9.5c0.2,9-2.7,12.6-6,17.9c2.9-2.2,6.8-8.1,7.9-10.4c1.5-3.1,2.1-5.6,2.2-8.9
			c0.1-2.9-0.2-7.4-1.6-10.5c-3-6.8-5.7-12.5-9.2-16.1c-3.2-3.4-6.9-6.1-11-9.2c0.2-0.9,0.5-1.7,0.6-2.5c0.7-4.6-3.6-8.9-7.1-11.5
			c-2-1.5-4.3-1.8-6.3-3c-1.7-1-3.1-3.5-5.9-3.4c-4.4-9.3-14-12.3-22.1-12.9c-3.6-0.3-7-1.3-10.6-1.9c-2.2-0.4-4.6-0.5-6.8-0.8
			c-2.1-0.3-4.6-0.4-6.6-0.5c-6.5-0.3-13.8,3.9-18.7,7.7c-4.1,3.2-7.5,6.9-11.3,10.5c-1.9,1.8-4.1,2.9-6,4.5c-1.3,1.1-4.7,5-5.1,6.6
			c-1.6,6.2-0.9,6.3-3.3,9.9c0,0-5-0.3-6.7,1.7c-0.6,0.8-6.3,1.5-8.7,0.1c-6.4-3.8-11.9,0.8-15.4,4.6c-4.8,5.2-9.7,15.7-10.6,29.6
			c-0.5,7.4,5.6,20.7,8.4,25c2.8,4.3,8.1,4.4,14.8,4.9c4.8,0.4,8.8,1.5,10.1,3.8c1.5,2.6,4.2,7,7.4,8.7c3.6,1.8,9.7,4.1,13.4,3.3
			c1.5-0.3,3,2.1,2.8,4.3s-2.6,23.6-8.5,30.2c-6,6.6-12.8,7.1-17.2,9.5c-4.5,2.4-7.5,18.2-5.7,23.3H155.5z"/>
	</g>
	<path class="st4" d="M103.2,240.7c21.4-2.9,43.5-2.3,65-2.9c-0.9-3.4-1-6.9-1.8-10.3c-0.6-2.6-1.6-5.3-1.7-8
		c-0.3-4-1.9-8.2-3.3-11.9c-2.2-5.9-5.6-11.6-9-16.8c-1.4-2.2-3.5-3.9-5.2-5.9c-1.6-1.8-3.6-3.9-5.6-5.3c0.1-1.2-3.8-4.2-4.9-5.2
		c-1.1-1-2.1-2.1-3-3.2c-2.3-2.8-4.1-5.8-6.6-8.5c-6.3-7-12.7-14.4-15.3-23.5c-1.1-3.8-0.6-7.4-3.4-10.3c-3.4-3.6,0.4-7.5,2.7-10.6
		c1.8-2.5,4.1-5.2,7.4-5c3.2,0.2,6.3,1.4,9.6,1.1c3.6-0.2,10.6-1.4,10.6-6c0-2.3-0.2-4.9,1.9-6.3c1.6-1.2,2.9-1.8,2.6-4.3
		c-0.2-2.1-0.8-2,1.3-2.8c1.6-0.6,1.8-1,1.4-3.1c-0.4-2.2-2-3.7,0.6-4.9c2.6-1.1,5-3.1,3.9-6.2c-1.8-4.8-6.7-9.1-6.2-14.4
		c0.2-1.8,0.4-3.7,1-5.3c0.6-1.6,1.3-2.6,1.4-4.4c0.2-3.1,0.3-7.1,0.3-10.2c0-4.5,0.9-9.7-1.5-13.3c-2.3-3.4-4.2-7.3-7.5-9.9
		C129,15.9,117.9,13.1,107,9.9c-8.5-2.5-16.8,0.7-24.8,3.8c0.6,0.3,1.3,0.4,2,0.2c-5.5,0.8-10.9,8.6-13.5,12.6
		c-1.7,2.6-4,5.3-5.1,8.3c-1.8,4.6-2.4,9.8-3.6,14.6c-1.3,5.1-2,10.2-3,15.3c-1.2,5.9-3.2,11.8-4.2,17.7c-2.2,13.2-5.1,26.6-6.7,40
		c-2.1,17.7-5.8,35.2-7.7,52.9c-0.5,4.5-0.8,9.9-1.6,14.5c-1.5,8.7,0.1,17.5-2.3,26.2c-2,7-3.7,14.7-3.9,21.9
		c8.5,0,17.1-0.8,25.7-0.6c9,0.3,18,1,27,0.6c4-0.2,7.9-1.1,11.9-1.2c2.3-0.1,2.6-0.4,3.9,1.3c0.7,0.9,0.9,1.7,2.2,2.1
		C103.4,240.3,103.2,240.5,103.2,240.7z"/>
	<path class="st4" d="M177.6,179.9c-10.5-4.9-40.9-2.4-51.9-30.4c-1.6-3.8,1-11.3,5.8-10.8c4.7,0.4,17.9,5.8,21.2,3.5
		c3.3-2.3,4.7-4,4.4-9.2c-0.1-3.2,0.6-4.1,2.8-5.7c2.3-1.6,2.5-1.1,2.7-3.5c0-0.5-1-1.3-1-2.1c0-0.5,3-2.3,3.3-4
		c-0.2-0.8-1.1-3.2-1-4c0.1-0.8,2.2-4.4,7.6-6c1.1-0.3,2-2.1,0.7-4.1c-1.3-2-8.8-8.7-6.9-19.2c0.1-0.4,0.4-0.6,0.9-0.7
		c0.5,0,3.6-0.2,4.3-3.6c-1,0.6-3,1.6-3.7,0.7c0.1-1.4,0.2-3.3,1-3.8c0.6-0.4,0.6-0.7,0.7-1.2s-0.1-5.5-1.5-9.8
		c-1.4-4.3-10-46.5-59.9-46.5s-59.5,42.6-61,53.3s-0.6,59.8-13.6,59.8c-2.1,0-4.6-1.5-4.6-3.1c-1.1,1.1-1.5,3.8-1,4.3
		c-1.1-0.1-3.3-1.7-2.3-4.8c-3.6,2.2-13.1,11.8,0,19.1c-1.1,1.5-6.3,3.3-11-2.4c0,7-2.5,16.6,16.3,20.8c-4.3,2.5-7.4,2.4-12.1-0.8
		c0,3.8-1.1,13.1,15.2,15.2C30,182.5,11.9,190.9,0,190c0.1,5.9,0,10,0,10h189.5C189.5,200,192.1,186.6,177.6,179.9z"/>
</g>
<g id="Layer_3" class="st5">
</g>
</svg>
