<svg width="29" height="26" viewBox="0 0 29 26" fill="none" xmlns="http://www.w3.org/2000/svg">
<path d="M26.7344 8.62469H23.3848L18.2323 1.46863C17.7694 0.667906 16.7499 0.382905 15.9401 0.835645C15.1193 1.29598 14.8241 2.33971 15.2804 3.16858C15.2934 3.19204 15.3078 3.21459 15.3239 3.23604L19.3653 8.62469H9.63466L13.6761 3.23604C13.692 3.21459 13.7066 3.19204 13.7196 3.16858C14.1748 2.34172 13.8829 1.2971 13.0592 0.835198C12.2512 0.383352 11.2317 0.668129 10.7679 1.46819L5.61517 8.62469H2.26562C1.01643 8.62469 0 9.65078 0 10.9118C0 11.9064 0.63942 12.7724 1.54014 13.0788C1.63616 13.1539 1.75608 13.199 1.88662 13.199C1.91273 13.199 1.93729 13.2006 1.96295 13.2041C2.20677 13.2372 2.39993 13.4239 2.44418 13.6683L4.37106 24.3701C4.5182 25.186 5.22134 25.7783 6.04307 25.7783H22.9569C23.7787 25.7783 24.4818 25.186 24.6289 24.3698L26.5558 13.6685C26.6001 13.4239 26.7934 13.2372 27.0382 13.2041C27.0629 13.2006 27.0875 13.199 27.1134 13.199C27.2448 13.199 27.3656 13.1534 27.4616 13.0775C28.363 12.769 29 11.9047 29 10.9118C29 9.65078 27.9836 8.62469 26.7344 8.62469ZM16.2552 2.58317C16.1258 2.31269 16.2262 1.98324 16.4895 1.83583C16.7636 1.68238 17.1092 1.78133 17.2603 2.05628C17.2714 2.07683 17.284 2.09648 17.2975 2.11524L21.9843 8.62469H20.786L16.2552 2.58317ZM11.7025 2.11547C11.716 2.0967 11.7281 2.07727 11.7394 2.05717C11.891 1.782 12.2368 1.68283 12.5098 1.83538C12.7736 1.98324 12.8745 2.31224 12.7448 2.58317L8.214 8.62469H7.01569L11.7025 2.11547ZM26.7344 12.0554H16.7656C16.4528 12.0554 16.1992 12.3114 16.1992 12.6272C16.1992 12.943 16.4528 13.1932 16.7656 13.1932H25.5108C25.4812 13.2785 25.4577 13.367 25.4414 13.4581L23.5143 24.1653C23.4654 24.4373 23.2308 24.6347 22.9569 24.6347H6.04307C5.76894 24.6347 5.53463 24.4373 5.48551 24.1655L3.55862 13.4637C3.54225 13.3725 3.5188 13.2841 3.48915 13.199H12.2344C12.5472 13.199 12.8008 12.943 12.8008 12.6272C12.8008 12.3114 12.5472 12.0554 12.2344 12.0554H2.26562C1.63572 12.0554 1.13281 11.5372 1.13281 10.9118C1.13281 10.2813 1.64103 9.76826 2.26562 9.76826H26.7344C27.359 9.76826 27.8672 10.2813 27.8672 10.9118C27.8672 11.5468 27.3526 12.0554 26.7344 12.0554Z" fill="#590076"/>
<path d="M14.5 14.9148C13.563 14.9148 12.8008 15.6842 12.8008 16.6301V21.2043C12.8008 22.1502 13.563 22.9197 14.5 22.9197C15.437 22.9197 16.1992 22.1502 16.1992 21.2043V16.6301C16.1992 15.6825 15.4388 14.9148 14.5 14.9148ZM15.0664 21.2043C15.0664 21.5197 14.8124 21.7761 14.5 21.7761C14.1876 21.7761 13.9336 21.5197 13.9336 21.2043V16.6301C13.9336 16.3148 14.1876 16.0583 14.5 16.0583C14.8126 16.0583 15.0664 16.3145 15.0664 16.6301V21.2043Z" fill="#590076"/>
<path d="M20.1641 22.9197C21.1011 22.9197 21.8633 22.1502 21.8633 21.2043V16.6301C21.8633 15.6825 21.1028 14.9148 20.1641 14.9148C19.2271 14.9148 18.4648 15.6842 18.4648 16.6301V21.2043C18.4648 22.1502 19.2271 22.9197 20.1641 22.9197ZM19.5977 16.6301C19.5977 16.3148 19.8517 16.0583 20.1641 16.0583C20.4767 16.0583 20.7305 16.3145 20.7305 16.6301V21.2043C20.7305 21.5197 20.4765 21.7761 20.1641 21.7761C19.8517 21.7761 19.5977 21.5197 19.5977 21.2043V16.6301Z" fill="#590076"/>
<path d="M8.83594 14.9148C7.89893 14.9148 7.13672 15.6842 7.13672 16.6301V21.2043C7.13672 22.1502 7.89893 22.9197 8.83594 22.9197C9.77294 22.9197 10.5352 22.1502 10.5352 21.2043V16.6301C10.5352 15.6825 9.77471 14.9148 8.83594 14.9148ZM9.40234 21.2043C9.40234 21.5197 9.14835 21.7761 8.83594 21.7761C8.52353 21.7761 8.26953 21.5197 8.26953 21.2043V16.6301C8.26953 16.3148 8.52353 16.0583 8.83594 16.0583C9.14857 16.0583 9.40234 16.3143 9.40234 16.6301V21.2043Z" fill="#590076"/>
</svg>
