<svg width="30" height="27" viewBox="0 0 30 27" fill="none" xmlns="http://www.w3.org/2000/svg">
<path d="M29.7811 10.6086C29.7811 7.9123 28.4973 5.38737 26.1661 3.49904C23.8813 1.64824 20.8526 0.628906 17.6383 0.628906C14.424 0.628906 11.3953 1.64824 9.11051 3.49904C7.97773 4.41672 7.09308 5.48492 6.48198 6.64978C5.21437 7.05879 4.04883 7.67727 3.05175 8.48497C1.08387 10.0792 0 12.2129 0 14.4932C0 16.5724 0.912046 18.5471 2.57647 20.089L2.41239 26.0991C2.40436 26.3923 2.57147 26.6618 2.8363 26.783C2.93198 26.8269 3.03372 26.8481 3.13475 26.8481C3.31326 26.8481 3.48945 26.7815 3.62585 26.6543L7.87157 22.6923C8.63838 22.8404 9.42653 22.9155 10.2199 22.9155C12.8724 22.9155 15.3748 22.0882 17.284 20.5839C17.4019 20.5867 17.5199 20.5885 17.6384 20.5885C18.8311 20.5885 20.0064 20.4472 21.1381 20.1683L24.8539 23.6358C24.9903 23.7629 25.1664 23.8296 25.345 23.8296C25.446 23.8296 25.5478 23.8083 25.6434 23.7645C25.9083 23.6433 26.0754 23.3738 26.0674 23.0806L25.9262 17.9065C28.3814 16.0228 29.7811 13.3829 29.7811 10.6086ZM10.22 21.4574C9.40286 21.4574 8.59284 21.3677 7.81265 21.1907C7.58034 21.1382 7.33767 21.204 7.16311 21.3669L3.9047 24.4076L4.03074 19.7888C4.03673 19.5684 3.94349 19.357 3.77702 19.2139C2.2736 17.9219 1.4456 16.2454 1.4456 14.4932C1.4456 11.9426 3.18245 9.70826 5.76637 8.49506C5.58791 9.18146 5.49554 9.8888 5.49554 10.6085C5.49554 13.3048 6.77939 15.8297 9.11051 17.7181C10.7485 19.0449 12.7686 19.9442 14.9655 20.3472C13.5964 21.0488 11.9674 21.4574 10.22 21.4574ZM24.775 16.9504C24.5781 17.0913 24.4639 17.3218 24.4706 17.5651L24.5749 21.3891L21.8298 18.8274C21.6945 18.7012 21.5185 18.6335 21.3388 18.6335C21.2749 18.6335 21.2105 18.642 21.1473 18.6596C20.0207 18.972 18.8401 19.1303 17.6382 19.1303C11.7398 19.1303 6.94103 15.3074 6.94103 10.6085C6.94103 5.90947 11.7399 2.08664 17.6383 2.08664C23.5368 2.08664 28.3355 5.90953 28.3355 10.6085C28.3355 13.0205 27.0377 15.3321 24.775 16.9504Z" fill="black"/>
<path d="M17.7391 8.4436C16.4437 8.4436 15.3899 9.50615 15.3899 10.8123C15.3899 12.1184 16.4437 13.1809 17.7391 13.1809C19.0344 13.1809 20.0882 12.1184 20.0882 10.8123C20.0882 9.50615 19.0344 8.4436 17.7391 8.4436ZM17.7391 11.7232C17.2408 11.7232 16.8356 11.3146 16.8356 10.8123C16.8356 10.3099 17.2409 9.90126 17.7391 9.90126C18.2373 9.90126 18.6426 10.3099 18.6426 10.8123C18.6426 11.3146 18.2373 11.7232 17.7391 11.7232Z" fill="black"/>
<path d="M23.8831 8.4436C22.5877 8.4436 21.5339 9.50615 21.5339 10.8123C21.5339 12.1184 22.5877 13.1809 23.8831 13.1809C25.1784 13.1809 26.2322 12.1184 26.2322 10.8123C26.2322 9.50615 25.1784 8.4436 23.8831 8.4436ZM23.8831 11.7232C23.3848 11.7232 22.9796 11.3146 22.9796 10.8123C22.9796 10.3099 23.3849 9.90126 23.8831 9.90126C24.3813 9.90126 24.7866 10.3099 24.7866 10.8123C24.7866 11.3146 24.3813 11.7232 23.8831 11.7232Z" fill="black"/>
<path d="M11.595 8.4436C10.2997 8.4436 9.24585 9.50615 9.24585 10.8123C9.24585 12.1184 10.2997 13.1809 11.595 13.1809C12.8903 13.1809 13.9442 12.1184 13.9442 10.8123C13.9442 9.50615 12.8904 8.4436 11.595 8.4436ZM11.595 11.7232C11.0968 11.7232 10.6915 11.3146 10.6915 10.8123C10.6915 10.3099 11.0968 9.90126 11.595 9.90126C12.0933 9.90126 12.4985 10.3099 12.4985 10.8123C12.4985 11.3146 12.0933 11.7232 11.595 11.7232Z" fill="black"/>
</svg>
