<svg width="26" height="20" viewBox="0 0 26 20" fill="none" xmlns="http://www.w3.org/2000/svg">
<path d="M23.9529 19.5569H2.04712C1.59842 19.5569 1.23462 19.1931 1.23462 18.7445V14.5966C1.23462 14.1479 1.59842 13.7841 2.04712 13.7841H23.9529C24.4016 13.7841 24.7654 14.1479 24.7654 14.5966V18.7445C24.7654 19.1932 24.4017 19.5569 23.9529 19.5569Z" fill="#FFC733"/>
<path d="M23.9529 13.7841H13V19.557H23.9529C24.4016 19.557 24.7654 19.1932 24.7654 18.7445V14.5966C24.7654 14.1479 24.4016 13.7841 23.9529 13.7841Z" fill="#FFAF00"/>
<path d="M24.5755 1.85833L18.9847 8.25163L13.6741 0.358559C13.3525 -0.119444 12.6477 -0.119596 12.3259 0.358559L7.01534 8.25163L1.42448 1.85833C0.904485 1.26378 -0.0747793 1.69065 0.00454084 2.47497L1.23456 14.6376V15.4091C2.30086 15.4091 23.9099 15.4091 24.7653 15.4091V14.6376L25.9954 2.47497C26.0748 1.69045 25.0954 1.26389 24.5755 1.85833Z" fill="#FFE365"/>
<path d="M24.5755 1.85834L18.9846 8.25163L13.6741 0.358566C13.5132 0.119539 13.2566 0 13 0V15.409C18.669 15.409 24.3357 15.409 24.7654 15.409V14.6375L25.9955 2.47487C26.0748 1.69045 25.0953 1.26389 24.5755 1.85834Z" fill="#FFC733"/>
<path d="M13.0001 12.4397C11.546 12.4397 10.363 11.2568 10.363 9.80269C10.363 8.34863 11.546 7.16568 13.0001 7.16568C14.4542 7.16568 15.6371 8.34863 15.6371 9.80269C15.6372 11.2568 14.4541 12.4397 13.0001 12.4397Z" fill="#FF7976"/>
<path d="M15.637 9.80269C15.637 8.34863 14.4541 7.16568 13 7.16568V12.4397C14.4541 12.4397 15.637 11.2567 15.637 9.80269Z" fill="#FF5752"/>
</svg>
