<svg width="340" height="340" viewBox="0 0 340 340" fill="none" xmlns="http://www.w3.org/2000/svg">
<g clip-path="url(#clip0_954_75)">
<path d="M114.236 323.293L64.7941 295.299L169.774 172.032L114.236 323.293Z" fill="#F49551" stroke="black"/>
<path d="M170 333.904L114.462 323.293L170 171.806V333.904Z" fill="#8000A9" stroke="black"/>
<path d="M64.5684 295.299L28.4462 251.726L169.774 171.806L64.5684 295.299Z" fill="#0060FF" stroke="black"/>
<path d="M28.2205 251.726L8.80481 198.446L170 171.58L28.2205 251.726Z" fill="#8000A9" stroke="black"/>
<path d="M8.80481 198.446V141.554L169.323 171.58L8.80481 198.446Z" fill="#ECEE39" stroke="black"/>
<path d="M8.80481 141.554L28.2205 88.0479L170 171.806L8.80481 141.554Z" fill="#EB532E" stroke="black"/>
<path d="M28.2204 87.822L64.7941 44.7012L170 171.806L28.2204 87.822Z" fill="#8000A9" stroke="black"/>
<path d="M64.7941 44.7012L114.011 16.0292L170.226 171.806L64.7941 44.7012Z" fill="#65E19C" stroke="black"/>
<path d="M114.011 16.0292L170 6.54712V171.355L114.011 16.0292Z" fill="#1094E5" stroke="black"/>
<path d="M226.215 19.6414L275.657 47.6361L170.677 170.903L226.215 19.6414Z" fill="#45B344" stroke="black"/>
<path d="M170.452 9.03057L225.989 19.6415L170.452 171.129L170.452 9.03057Z" fill="#8000A9" stroke="black"/>
<path d="M170.452 9.03057L225.989 19.6415L170.452 171.129L170.452 9.03057Z" fill="#8000A9" stroke="black"/>
<path d="M275.883 47.6361L312.005 91.2085L170.677 171.129L275.883 47.6361Z" fill="#52B0E3" stroke="black"/>
<path d="M312.231 91.2085L331.647 144.489L170.452 171.355L312.231 91.2085Z" fill="#8000A9" stroke="black"/>
<path d="M331.647 144.489L331.647 201.381L171.129 171.355L331.647 144.489Z" fill="#FF0000" stroke="black"/>
<path d="M331.647 201.381L312.231 254.887L170.452 171.129L331.647 201.381Z" fill="#C7539B" stroke="black"/>
<path d="M312.231 255.113L275.657 298.234L170.451 171.129L312.231 255.113Z" fill="#8000A9" stroke="black"/>
<path d="M275.657 298.234L226.441 326.906L170.226 171.129L275.657 298.234Z" fill="#9575FC" stroke="black"/>
<path d="M226.441 326.906L170.452 336.388L170.452 171.58L226.441 326.906Z" fill="#D7406F" stroke="black"/>
<circle cx="171.035" cy="170.035" r="158.035" fill="url(#paint0_radial_954_75)"/>
<circle cx="170" cy="170" r="163.5" stroke="#8000A9" stroke-width="13"/>
<g filter="url(#filter0_d_954_75)">
<circle cx="169.574" cy="170.574" r="36.5737" fill="#8000A9"/>
<circle cx="169.574" cy="170.574" r="36.0737" stroke="black"/>
</g>
<g filter="url(#filter1_d_954_75)">
<path d="M178.976 156H163.118C161.882 156 160.879 157.002 160.879 158.239V161.462C160.879 161.825 160.585 162.118 160.223 162.118H159.18C158.817 162.118 158.524 161.825 158.524 161.462V156.657C158.524 156.294 158.23 156 157.867 156H157.656C157.294 156 157 156.294 157 156.657V162.119V163.642V183.79C157 184.152 157.294 184.446 157.656 184.446H157.867C158.23 184.446 158.524 184.152 158.524 183.79V164.299C158.524 163.936 158.817 163.642 159.18 163.642H160.223C160.585 163.642 160.879 163.936 160.879 164.299V182.207C160.879 183.444 161.882 184.446 163.118 184.446H178.976C180.213 184.446 181.215 183.444 181.215 182.207V158.239C181.215 157.002 180.213 156 178.976 156ZM168.517 173.873C168.362 174.283 168.141 174.641 167.853 174.947C167.565 175.252 167.175 175.404 166.686 175.404C166.595 175.404 166.48 175.394 166.341 175.373C166.201 175.353 166.094 175.333 166.019 175.314L166.132 174.438C166.109 174.434 166.176 174.438 166.332 174.449C166.489 174.461 166.588 174.466 166.629 174.466C166.867 174.466 167.06 174.361 167.211 174.15C167.362 173.938 167.488 173.705 167.59 173.449L167.856 172.81L165.584 166.818H166.827L168.116 170.668L168.313 171.436H168.347L169.851 166.818H171.089L168.517 173.873ZM177.024 172.934H176.023L175.95 172.03C175.758 172.358 175.511 172.61 175.209 172.787C174.908 172.965 174.559 173.053 174.164 173.053C173.497 173.053 172.977 172.84 172.604 172.414C172.23 171.989 172.044 171.325 172.044 170.425V166.819H173.158V170.436C173.158 171.088 173.254 171.536 173.446 171.781C173.638 172.026 173.938 172.149 174.344 172.149C174.74 172.149 175.067 172.069 175.325 171.909C175.583 171.748 175.778 171.521 175.91 171.227V166.819H177.024V172.934Z" fill="#FFE365"/>
</g>
<g filter="url(#filter2_d_954_75)">
<path d="M206.163 58.0818L175.362 51.9978C174.731 51.8732 174.32 51.2606 174.445 50.6298L175.597 44.7976C175.721 44.1667 176.334 43.7563 176.965 43.8809L207.766 49.9649C208.397 50.0895 208.807 50.7021 208.683 51.3329L207.531 57.1651C207.406 57.796 206.793 58.2064 206.163 58.0818Z" fill="#FFC733"/>
<path d="M207.766 49.9648L192.365 46.9228L190.762 55.0397L206.163 58.0817C206.793 58.2063 207.406 57.7958 207.531 57.165L208.683 51.3329C208.807 50.7019 208.397 50.0894 207.766 49.9648Z" fill="#FFAF00"/>
<path d="M211.953 33.3694L202.317 40.806L197.042 28.2329C196.722 27.4715 195.732 27.2755 195.146 27.8584L185.487 37.4817L179.402 26.9395C178.836 25.9591 177.34 26.2874 177.234 27.4122L175.585 44.8552L175.371 45.94C176.87 46.2362 207.254 52.2378 208.457 52.4753L208.671 51.3905L213.779 34.6307C214.108 33.5497 212.85 32.6779 211.953 33.3694Z" fill="#FFE365"/>
<path d="M211.953 33.3694L202.317 40.806L197.042 28.2329C196.882 27.8522 196.555 27.6128 196.194 27.5416L191.914 49.2076C199.885 50.7821 207.853 52.3559 208.457 52.4753L208.671 51.3905L213.779 34.6307C214.108 33.5498 212.85 32.678 211.953 33.3694Z" fill="#FFC733"/>
<path d="M192.739 45.0326C190.694 44.6288 189.36 42.637 189.764 40.5924C190.167 38.5479 192.159 37.2132 194.204 37.617C196.248 38.0209 197.583 40.0127 197.179 42.0572C196.775 44.1018 194.783 45.4365 192.739 45.0326Z" fill="#FF7976"/>
<path d="M197.179 42.0571C197.583 40.0126 196.248 38.0208 194.204 37.6169L192.739 45.0326C194.783 45.4364 196.775 44.1016 197.179 42.0571Z" fill="#FF5752"/>
</g>
<g filter="url(#filter3_d_954_75)">
<path d="M301.05 141.393L291.661 113.725L274.509 119.546L283.898 147.215L301.05 141.393Z" fill="#FFDA44"/>
<path d="M306.734 132.68L307.86 136L304.155 134.172L302.089 128.085L304.302 127.334L310.607 131.365L306.734 132.68Z" fill="#EA348B"/>
<path d="M301.477 117.184L305.35 115.87L302.802 122.906L300.588 123.657L298.523 117.57L300.35 113.864L301.477 117.184Z" fill="#EA348B"/>
<path d="M290.072 127.223L286.13 115.602L282.81 116.729L286.753 128.35L290.072 127.223Z" fill="#E13957"/>
<path d="M295.516 143.272L291.573 131.651L288.254 132.778L292.196 144.399L295.516 143.272Z" fill="#E13957"/>
<path d="M305.41 126.957L303.907 122.531L300.587 123.657L302.09 128.084L305.41 126.957Z" fill="#DC1C3F"/>
<path d="M306.782 141.919L295.893 109.821L290.914 111.511L301.803 143.609L306.782 141.919Z" fill="#FF9811"/>
<path d="M301.05 141.395L291.664 113.725L290.557 114.1L299.944 141.771L301.05 141.395Z" fill="#DFBF3C"/>
<path d="M297.108 129.773L295.606 125.346L278.451 131.167L279.953 135.593L297.108 129.773Z" fill="#D80027"/>
<path d="M306.782 141.919L295.894 109.821L294.788 110.197L305.676 142.295L306.782 141.919Z" fill="#FFAF46"/>
<path d="M302.089 128.084L300.587 123.657L295.607 125.347L297.109 129.774L302.089 128.084Z" fill="#BD0022"/>
<path d="M280.166 123.487L279.039 120.167C278.884 119.708 278.386 119.463 277.928 119.619C277.469 119.774 277.224 120.272 277.379 120.73L278.506 124.051C278.661 124.509 279.159 124.755 279.617 124.599C280.076 124.443 280.321 123.946 280.166 123.487Z" fill="#FFEB99"/>
<path d="M281.104 126.254L280.917 125.701C280.761 125.243 280.263 124.997 279.805 125.153C279.347 125.308 279.101 125.806 279.257 126.264L279.444 126.818C279.6 127.276 280.098 127.522 280.556 127.366C281.014 127.211 281.26 126.713 281.104 126.254Z" fill="#FFEB99"/>
<path d="M297.108 129.774L295.606 125.346L294.5 125.722L296.002 130.149L297.108 129.774Z" fill="#A2001D"/>
<path d="M299.461 120.336L300.933 119.22L300.212 122.55L299.461 120.336Z" fill="#F178B2"/>
<path d="M303.216 131.405L305.063 131.395L302.464 129.191L303.216 131.405Z" fill="#F178B2"/>
</g>
<g filter="url(#filter4_d_954_75)">
<path d="M268.94 258.527L268.134 259.332C267.912 259.555 267.552 259.555 267.329 259.332C267.106 259.11 267.106 258.75 267.329 258.527L268.134 257.722C268.356 257.5 268.356 257.139 268.134 256.917L267.394 256.176C267.171 255.954 267.171 255.593 267.394 255.371C267.616 255.148 267.977 255.148 268.199 255.371L268.94 256.111C269.606 256.777 269.606 257.861 268.94 258.527Z" fill="#A2001D"/>
<path d="M270.148 262.151C269.703 262.596 268.982 262.596 268.537 262.151L264.511 258.124L266.121 256.514L270.148 260.54C270.593 260.985 270.593 261.706 270.148 262.151Z" fill="#D80027"/>
<path d="M264.478 253.26L266.975 255.757L266.926 257.319L264.108 260.138C263.439 260.806 262.344 260.79 261.676 260.122L260.065 258.511C259.405 257.851 259.413 256.78 260.081 256.111L262.9 253.293L264.478 253.26Z" fill="#FE318F"/>
<path d="M265.719 254.501L266.975 255.757L266.927 257.319L264.108 260.138C263.44 260.806 262.345 260.79 261.676 260.122L260.887 259.332L265.719 254.501Z" fill="#FD0F7F"/>
<path d="M271.555 245.89C271.241 245.891 270.986 245.635 270.986 245.321L270.986 244.182C270.986 243.867 271.24 243.612 271.555 243.612C271.869 243.612 272.124 243.867 272.124 244.182L272.125 245.321C272.125 245.635 271.87 245.89 271.555 245.89Z" fill="#EA348B"/>
<path d="M276.111 249.307L274.971 249.306C274.657 249.306 274.402 249.051 274.402 248.737C274.402 248.422 274.657 248.168 274.971 248.168L276.111 248.168C276.425 248.168 276.68 248.423 276.68 248.737C276.68 249.052 276.425 249.307 276.111 249.307Z" fill="#EA348B"/>
<path d="M275.382 244.837C275.608 245.063 275.608 245.417 275.382 245.642L274.174 246.85C273.949 247.076 273.594 247.076 273.369 246.85C273.143 246.625 273.143 246.271 273.369 246.045L274.577 244.837C274.802 244.612 275.157 244.612 275.382 244.837Z" fill="#EA348B"/>
<path d="M268.537 246.045L274.174 251.682C274.335 251.843 274.536 253.542 274.746 253.575L273.159 253.905C270.808 254.372 268.577 255.668 267.063 257.182L266.926 257.319L262.9 253.293L263.037 253.156C264.631 251.561 265.807 249.451 266.29 247.036L266.62 245.385L268.537 246.045Z" fill="#FFE365"/>
<path d="M264.108 256.111C264.334 256.337 264.334 256.691 264.108 256.916L263.303 257.722C263.077 257.947 262.723 257.947 262.498 257.722C262.272 257.496 262.272 257.142 262.498 256.916L263.303 256.111C263.528 255.886 263.883 255.886 264.108 256.111Z" fill="#E1E4FB"/>
<path d="M271.356 248.864L274.174 251.682C274.335 251.843 274.537 253.542 274.746 253.575L273.16 253.905C270.808 254.372 268.577 255.668 267.063 257.182L266.927 257.319L264.913 255.306L271.356 248.864Z" fill="#FFC733"/>
<path d="M264.108 256.111C264.333 256.337 264.333 256.691 264.108 256.917L263.303 257.722C263.077 257.947 262.723 257.947 262.497 257.722L264.108 256.111Z" fill="#C5C9F7"/>
<path d="M268.537 244.435L275.785 251.682C276.228 252.125 276.228 252.85 275.785 253.293C275.737 253.341 275.672 253.373 275.608 253.405C275.35 253.583 275.044 253.647 274.746 253.575C274.537 253.542 274.335 253.454 274.174 253.293L266.927 246.045C266.741 245.86 266.653 245.626 266.621 245.385C266.588 245.143 266.637 244.902 266.757 244.684C266.814 244.596 266.854 244.507 266.927 244.435C267.37 243.992 268.094 243.992 268.537 244.435Z" fill="#FE318F"/>
<path d="M272.161 248.058L275.785 251.682C276.227 252.125 276.227 252.85 275.785 253.293C275.736 253.341 275.672 253.373 275.607 253.405C275.35 253.583 275.044 253.647 274.746 253.574C274.536 253.542 274.335 253.454 274.174 253.293L270.55 249.669L272.161 248.058Z" fill="#FD0F7F"/>
<path d="M268.433 268.659C277.036 268.659 284.011 261.684 284.011 253.081C284.011 244.478 277.036 237.503 268.433 237.503C259.829 237.503 252.855 244.478 252.855 253.081C252.855 261.684 259.829 268.659 268.433 268.659ZM280.603 253.081C280.603 255.819 279.698 258.346 278.172 260.38L261.134 243.342C263.167 241.816 265.694 240.911 268.433 240.911C275.154 240.911 280.603 246.36 280.603 253.081ZM258.72 245.748L275.766 262.794C273.727 264.336 271.187 265.251 268.433 265.251C261.712 265.251 256.263 259.802 256.263 253.081C256.263 250.327 257.178 247.787 258.72 245.748Z" fill="#FFE365"/>
</g>
<g filter="url(#filter5_d_954_75)">
<path d="M158.457 311.808C153.338 314.899 139.02 312.86 135.06 308.477C131.008 304.081 133.754 288.144 138.471 284.519C143.189 280.893 158.35 283.052 161.868 287.85C165.387 292.647 163.576 308.717 158.457 311.808Z" fill="#FFC733"/>
<path d="M147.786 303.604C143.202 306.293 138.376 307.325 134.058 306.806C131.649 300.925 134.182 287.822 138.472 284.518C142.334 281.535 153.003 282.386 158.78 285.404C159.398 291.794 155.19 299.216 147.786 303.604Z" fill="#FFE365"/>
<path d="M147.159 307.334C144.632 306.974 142.88 305.866 141.903 304.008C140.926 302.15 140.591 299.811 141.004 296.91C141.404 294.102 142.392 291.856 143.849 290.344C145.305 288.833 147.297 288.257 149.824 288.617C152.35 288.977 154.102 290.085 155.079 291.943C156.056 293.801 156.391 296.14 155.978 299.041C155.578 301.849 154.59 304.095 153.134 305.607C151.677 307.118 149.686 307.694 147.159 307.334ZM146.497 293.204C145.775 294.247 145.295 295.611 145.028 297.482C144.775 299.261 144.843 300.798 145.244 302.001C145.646 303.204 146.502 303.899 147.625 304.059C148.842 304.232 149.764 303.79 150.485 302.747C151.207 301.704 151.687 300.34 151.954 298.468C152.207 296.69 152.139 295.153 151.738 293.95C151.336 292.747 150.48 292.052 149.357 291.892C148.127 291.813 147.205 292.254 146.497 293.204Z" fill="#8000A9"/>
</g>
<g filter="url(#filter6_d_954_75)">
<path d="M230.419 53.2144L226.548 59.4689C226.192 60.0444 226.371 60.801 226.946 61.1565L232.158 64.3822L236.674 57.0852L230.419 53.2144Z" fill="white" fill-opacity="0.97"/>
<path d="M247.593 58.0761L244.295 56.0349C244.632 56.0198 244.934 55.985 245.165 55.9289C246.53 55.6041 247.381 54.2281 247.063 52.8621C246.755 51.5328 245.33 50.6537 244.006 50.97C243.273 51.1434 240.931 52.2477 240.334 53.5835L240.259 53.537C241.187 52.4057 241.13 49.8177 240.96 49.0849C240.651 47.7577 239.227 46.8765 237.902 47.1928C236.539 47.5182 235.687 48.8942 236.003 50.259C236.057 50.4912 236.161 50.7775 236.297 51.0856L232.999 49.0444C232.425 48.6889 231.667 48.8673 231.311 49.4417L230.344 51.0053C230.166 51.293 230.255 51.6711 230.542 51.8491L237.318 56.0424L238.609 53.9575L240.693 55.2478L239.403 57.3326L246.179 61.5259C246.467 61.704 246.845 61.615 247.023 61.3273L247.991 59.7636C248.346 59.1892 248.169 58.4322 247.593 58.0761ZM239.214 52.8427C239.214 52.8427 239.148 52.85 238.999 52.7577C238.279 52.3119 237.367 50.7125 237.198 49.9821C237.033 49.2719 237.477 48.5547 238.186 48.3851C238.53 48.3034 238.882 48.3602 239.18 48.5447C239.477 48.7285 239.686 49.0188 239.766 49.3625C240.031 50.504 239.612 52.7417 239.214 52.8427ZM241.592 54.3621C241.444 54.2705 241.421 54.2101 241.421 54.209C241.334 53.8075 243.15 52.4342 244.29 52.1623C244.973 51.998 245.709 52.4507 245.869 53.1396C246.035 53.8505 245.591 54.5677 244.881 54.7366C244.152 54.911 242.313 54.8085 241.592 54.3621Z" fill="white" fill-opacity="0.97"/>
<path d="M238.759 58.3752L234.243 65.6722L239.455 68.8979C240.03 69.254 240.786 69.076 241.142 68.5006L245.013 62.246L238.759 58.3752Z" fill="white" fill-opacity="0.97"/>
</g>
<g filter="url(#filter7_d_954_75)">
<path d="M267.589 82.4075L261.801 86.9469C261.268 87.3645 261.176 88.1366 261.593 88.6681L265.376 93.4912L272.128 88.1953L267.589 82.4075Z" fill="white" fill-opacity="0.97"/>
<path d="M282.039 92.8861L279.645 89.834C279.966 89.9357 280.263 90.0073 280.499 90.0341C281.891 90.199 283.165 89.2003 283.336 87.8083C283.505 86.4544 282.47 85.1382 281.117 84.9791C280.37 84.8895 277.791 85.1201 276.77 86.1685L276.716 86.099C277.977 85.3564 278.815 82.9072 278.907 82.1604C279.074 80.808 278.04 79.4903 276.688 79.3312C275.296 79.1673 274.022 80.1659 273.849 81.556C273.82 81.7926 273.819 82.0972 273.841 82.4334L271.447 79.3813C271.03 78.8498 270.257 78.7564 269.726 79.1733L268.279 80.3081C268.013 80.5169 267.966 80.9025 268.175 81.1687L273.093 87.4388L275.022 85.9257L276.535 87.8549L274.606 89.368L279.523 95.6381C279.732 95.9044 280.118 95.951 280.384 95.7422L281.831 94.6073C282.362 94.1904 282.457 93.4186 282.039 92.8861ZM275.974 85.0872C275.974 85.0872 275.91 85.0717 275.802 84.9337C275.279 84.2672 274.974 82.4516 275.066 81.7075C275.156 80.9841 275.82 80.4636 276.544 80.5485C276.895 80.5899 277.206 80.7647 277.422 81.0406C277.638 81.3155 277.734 81.6597 277.69 82.0099C277.546 83.173 276.382 85.1297 275.974 85.0872ZM277.683 87.3328C277.576 87.1958 277.575 87.1311 277.576 87.1303C277.632 86.7232 279.81 86.0592 280.974 86.1964C281.671 86.2772 282.207 86.9557 282.12 87.6578C282.031 88.3822 281.367 88.9027 280.642 88.8168C279.897 88.7294 278.207 88.0003 277.683 87.3328Z" fill="white" fill-opacity="0.97"/>
<path d="M273.641 90.1246L266.889 95.4205L270.672 100.244C271.089 100.776 271.86 100.869 272.393 100.452L278.181 95.9123L273.641 90.1246Z" fill="white" fill-opacity="0.97"/>
</g>
<g filter="url(#filter8_d_954_75)">
<path d="M300.723 162.902L293.368 162.925C292.691 162.927 292.143 163.479 292.145 164.154L292.164 170.284L300.745 170.258L300.723 162.902Z" fill="white" fill-opacity="0.97"/>
<path d="M305.679 180.05L305.667 176.171C305.858 176.449 306.048 176.688 306.217 176.854C307.215 177.84 308.833 177.835 309.824 176.843C310.789 175.879 310.782 174.204 309.813 173.247C309.278 172.717 307.103 171.314 305.653 171.513L305.653 171.425C307.104 171.614 309.27 170.198 309.802 169.665C310.765 168.701 310.76 167.027 309.791 166.07C308.794 165.085 307.176 165.089 306.184 166.079C306.016 166.248 305.828 166.487 305.639 166.766L305.627 162.888C305.625 162.212 305.073 161.663 304.397 161.665L302.558 161.671C302.22 161.672 301.946 161.947 301.947 162.286L301.972 170.254L304.423 170.247L304.431 172.699L301.979 172.706L302.003 180.674C302.004 181.013 302.28 181.287 302.618 181.286L304.457 181.28C305.132 181.278 305.681 180.727 305.679 180.05ZM305.689 170.171C305.689 170.171 305.649 170.119 305.648 169.944C305.646 169.097 306.521 167.477 307.051 166.947C307.567 166.432 308.411 166.429 308.929 166.941C309.18 167.189 309.319 167.519 309.32 167.869C309.321 168.219 309.184 168.549 308.935 168.799C308.106 169.627 305.986 170.455 305.689 170.171ZM305.658 172.993C305.657 172.819 305.696 172.767 305.697 172.767C305.992 172.48 308.118 173.295 308.951 174.119C309.452 174.612 309.457 175.476 308.957 175.976C308.441 176.493 307.598 176.495 307.079 175.982C306.545 175.455 305.66 173.841 305.658 172.993Z" fill="white" fill-opacity="0.97"/>
<path d="M300.753 172.71L292.172 172.736L292.19 178.865C292.192 179.542 292.743 180.09 293.42 180.088L300.776 180.065L300.753 172.71Z" fill="white" fill-opacity="0.97"/>
</g>
<g filter="url(#filter9_d_954_75)">
<path d="M295.608 207.944L288.772 205.231C288.143 204.981 287.43 205.29 287.18 205.918L284.919 211.614L292.895 214.78L295.608 207.944Z" fill="white" fill-opacity="0.97"/>
<path d="M293.836 225.704L295.267 222.099C295.341 222.428 295.428 222.719 295.524 222.937C296.083 224.223 297.587 224.82 298.876 224.267C300.13 223.731 300.746 222.174 300.202 220.925C299.903 220.234 298.405 218.123 296.985 217.769L297.018 217.687C298.294 218.402 300.832 217.893 301.523 217.596C302.775 217.059 303.393 215.503 302.849 214.254C302.29 212.969 300.786 212.372 299.498 212.922C299.279 213.016 299.015 213.169 298.736 213.357L300.167 209.752C300.416 209.124 300.107 208.409 299.48 208.16L297.771 207.482C297.456 207.357 297.1 207.511 296.975 207.825L294.036 215.232L296.314 216.136L295.41 218.415L293.131 217.51L290.192 224.917C290.067 225.231 290.221 225.588 290.536 225.713L292.245 226.391C292.872 226.64 293.586 226.333 293.836 225.704ZM297.518 216.536C297.518 216.536 297.499 216.473 297.564 216.31C297.876 215.523 299.291 214.345 299.98 214.05C300.651 213.764 301.434 214.075 301.726 214.743C301.866 215.067 301.872 215.424 301.743 215.75C301.614 216.074 301.365 216.33 301.041 216.469C299.963 216.931 297.687 216.911 297.518 216.536ZM296.439 219.144C296.504 218.982 296.559 218.949 296.56 218.95C296.94 218.793 298.61 220.34 299.078 221.414C299.359 222.058 299.043 222.862 298.393 223.141C297.722 223.428 296.938 223.117 296.648 222.448C296.348 221.76 296.126 219.933 296.439 219.144Z" fill="white" fill-opacity="0.97"/>
<path d="M291.991 217.06L284.016 213.894L281.754 219.591C281.505 220.22 281.813 220.933 282.441 221.183L289.278 223.896L291.991 217.06Z" fill="white" fill-opacity="0.97"/>
</g>
<g filter="url(#filter10_d_954_75)">
<path d="M242.383 278.991L238.767 272.587C238.434 271.997 237.685 271.79 237.097 272.122L231.759 275.136L235.979 282.608L242.383 278.991Z" fill="white" fill-opacity="0.97"/>
<path d="M229.849 291.7L233.227 289.793C233.078 290.095 232.962 290.377 232.9 290.607C232.528 291.959 233.323 293.368 234.674 293.747C235.987 294.118 237.444 293.292 237.805 291.979C238.006 291.253 238.166 288.67 237.283 287.503L237.36 287.459C237.904 288.817 240.2 290.015 240.924 290.218C242.236 290.587 243.694 289.763 244.055 288.45C244.427 287.099 243.631 285.69 242.283 285.309C242.053 285.244 241.752 285.197 241.417 285.169L244.794 283.262C245.382 282.93 245.591 282.18 245.259 281.592L244.355 279.99C244.188 279.696 243.814 279.592 243.519 279.758L236.581 283.676L237.786 285.811L235.651 287.016L234.446 284.881L227.507 288.799C227.212 288.965 227.108 289.34 227.275 289.634L228.179 291.235C228.511 291.824 229.26 292.033 229.849 291.7ZM238.472 286.878C238.472 286.878 238.497 286.817 238.65 286.731C239.387 286.315 241.228 286.286 241.95 286.49C242.651 286.687 243.066 287.422 242.873 288.125C242.779 288.465 242.56 288.747 242.254 288.919C241.95 289.091 241.596 289.133 241.256 289.038C240.128 288.721 238.368 287.276 238.472 286.878ZM235.995 288.23C236.146 288.145 236.21 288.153 236.211 288.154C236.605 288.271 236.934 290.524 236.623 291.654C236.438 292.331 235.687 292.758 235.006 292.567C234.303 292.37 233.888 291.635 234.082 290.932C234.281 290.209 235.256 288.647 235.995 288.23Z" fill="white" fill-opacity="0.97"/>
<path d="M233.843 283.813L229.624 276.341L224.287 279.355C223.697 279.687 223.489 280.436 223.822 281.025L227.438 287.43L233.843 283.813Z" fill="white" fill-opacity="0.97"/>
</g>
<g filter="url(#filter11_d_954_75)">
<path d="M200.582 297.642L199.41 290.382C199.302 289.714 198.672 289.26 198.005 289.368L191.955 290.344L193.322 298.814L200.582 297.642Z" fill="white" fill-opacity="0.97"/>
<path d="M184.418 305.217L188.247 304.599C188.002 304.831 187.796 305.055 187.659 305.249C186.841 306.388 187.098 307.984 188.233 308.808C189.336 309.611 190.989 309.342 191.783 308.236C192.223 307.625 193.269 305.258 192.845 303.858L192.932 303.844C192.972 305.306 194.71 307.224 195.319 307.665C196.421 308.466 198.075 308.199 198.868 307.093C199.685 305.954 199.427 304.358 198.295 303.534C198.102 303.393 197.836 303.245 197.531 303.102L201.36 302.484C202.027 302.377 202.482 301.746 202.375 301.08L202.082 299.265C202.028 298.931 201.713 298.704 201.379 298.758L193.513 300.026L193.904 302.446L191.483 302.836L191.093 300.417L183.227 301.685C182.893 301.739 182.665 302.054 182.719 302.388L183.012 304.202C183.12 304.869 183.75 305.325 184.418 305.217ZM194.177 303.684C194.177 303.684 194.221 303.636 194.394 303.608C195.231 303.473 196.967 304.084 197.573 304.525C198.163 304.954 198.297 305.786 197.872 306.378C197.667 306.665 197.363 306.853 197.017 306.909C196.672 306.964 196.325 306.881 196.039 306.674C195.091 305.985 193.942 304.021 194.177 303.684ZM191.385 304.093C191.556 304.066 191.614 304.096 191.614 304.097C191.943 304.343 191.47 306.569 190.787 307.521C190.379 308.092 189.526 308.232 188.954 307.817C188.363 307.388 188.229 306.556 188.654 305.963C189.091 305.354 190.547 304.228 191.385 304.093Z" fill="white" fill-opacity="0.97"/>
<path d="M190.899 299.202L189.532 290.732L183.483 291.708C182.815 291.816 182.36 292.446 182.468 293.114L183.64 300.373L190.899 299.202Z" fill="white" fill-opacity="0.97"/>
</g>
<g filter="url(#filter12_d_954_75)">
<path d="M109.711 286.264L113.684 280.073C114.049 279.504 113.883 278.744 113.314 278.38L108.156 275.069L103.521 282.291L109.711 286.264Z" fill="white" fill-opacity="0.97"/>
<path d="M92.6184 281.122L95.8829 283.216C95.546 283.226 95.2429 283.256 95.0112 283.308C93.6416 283.611 92.7676 284.972 93.0632 286.344C93.349 287.678 94.7597 288.58 96.0893 288.285C96.8251 288.124 99.1842 287.058 99.8035 285.732L99.8778 285.78C98.9315 286.896 98.9454 289.485 99.1041 290.22C99.3912 291.552 100.801 292.457 102.13 292.162C103.499 291.859 104.373 290.497 104.079 289.127C104.029 288.894 103.93 288.606 103.798 288.296L107.063 290.391C107.631 290.756 108.392 290.59 108.757 290.021L109.75 288.474C109.933 288.189 109.85 287.81 109.565 287.627L102.859 283.323L101.534 285.387L99.471 284.062L100.795 281.999L94.0889 277.695C93.8041 277.513 93.4247 277.595 93.242 277.88L92.2488 279.428C91.884 279.996 92.0489 280.756 92.6184 281.122ZM100.911 286.491C100.911 286.491 100.977 286.485 101.124 286.58C101.837 287.037 102.723 288.651 102.88 289.385C103.033 290.097 102.577 290.807 101.865 290.965C101.521 291.041 101.169 290.979 100.874 290.789C100.58 290.601 100.377 290.307 100.302 289.962C100.056 288.816 100.511 286.586 100.911 286.491ZM98.5582 284.933C98.7047 285.027 98.7268 285.088 98.7262 285.089C98.807 285.492 96.9689 286.835 95.8246 287.089C95.1393 287.242 94.4106 286.777 94.2615 286.086C94.1076 285.372 94.5631 284.662 95.2759 284.505C96.0079 284.343 97.8442 284.475 98.5582 284.933Z" fill="white" fill-opacity="0.97"/>
<path d="M101.457 280.967L106.092 273.745L100.933 270.434C100.364 270.069 99.6049 270.234 99.2394 270.804L95.2668 276.994L101.457 280.967Z" fill="white" fill-opacity="0.97"/>
</g>
<g filter="url(#filter13_d_954_75)">
<path d="M74.1354 260.009L79.8751 255.409C80.4031 254.986 80.4875 254.213 80.065 253.686L76.2317 248.903L69.5354 254.27L74.1354 260.009Z" fill="white" fill-opacity="0.97"/>
<path d="M59.5758 249.683L62.0015 252.71C61.6792 252.612 61.3824 252.543 61.1461 252.519C59.7516 252.369 58.4888 253.381 58.3317 254.774C58.1771 256.13 59.2262 257.435 60.5803 257.58C61.3292 257.662 63.905 257.404 64.9148 256.345L64.97 256.414C63.7172 257.17 62.9047 259.628 62.8205 260.375C62.6678 261.73 63.715 263.036 65.0691 263.181C66.4629 263.331 67.7256 262.319 67.8843 260.927C67.9112 260.69 67.9091 260.385 67.8833 260.049L70.309 263.076C70.7315 263.603 71.5052 263.688 72.0323 263.266L73.4672 262.116C73.7312 261.904 73.7738 261.518 73.5622 261.254L68.5789 255.036L66.6657 256.57L65.1324 254.656L67.0456 253.123L62.0623 246.905C61.8507 246.641 61.4647 246.598 61.2007 246.81L59.7657 247.96C59.2386 248.382 59.1526 249.155 59.5758 249.683ZM65.7227 257.418C65.7227 257.418 65.7865 257.433 65.8961 257.57C66.4259 258.231 66.7503 260.043 66.6655 260.788C66.5831 261.512 65.9249 262.04 65.2 261.963C64.8492 261.925 64.5358 261.753 64.3166 261.48C64.0981 261.207 63.999 260.864 64.0385 260.513C64.1704 259.349 65.3135 257.38 65.7227 257.418ZM63.9894 255.191C64.0983 255.326 64.0999 255.391 64.0989 255.392C64.047 255.8 61.8765 256.486 60.7112 256.362C60.0129 256.288 59.4705 255.615 59.5497 254.912C59.6314 254.187 60.2895 253.659 61.0152 253.738C61.7608 253.817 63.4589 254.529 63.9894 255.191Z" fill="white" fill-opacity="0.97"/>
<path d="M68.0022 252.356L74.6985 246.99L70.8652 242.207C70.442 241.679 69.67 241.593 69.1419 242.017L63.4022 246.617L68.0022 252.356Z" fill="white" fill-opacity="0.97"/>
</g>
<g filter="url(#filter14_d_954_75)">
<path d="M39.2941 180.056L46.6356 179.623C47.3111 179.583 47.8268 179.001 47.787 178.327L47.4258 172.209L38.8607 172.715L39.2941 180.056Z" fill="white" fill-opacity="0.97"/>
<path d="M33.3882 163.211L33.6166 167.083C33.4106 166.817 33.2081 166.589 33.0295 166.433C31.9791 165.504 30.3644 165.599 29.4305 166.645C28.5207 167.662 28.6218 169.333 29.6423 170.234C30.2057 170.734 32.4552 172.013 33.8909 171.733L33.8961 171.821C32.4375 171.713 30.3541 173.249 29.8532 173.81C28.9458 174.826 29.0444 176.498 30.0649 177.399C31.1152 178.327 32.73 178.231 33.664 177.188C33.8229 177.01 33.9972 176.76 34.1705 176.471L34.3989 180.343C34.4386 181.017 35.0203 181.534 35.6944 181.495L37.5293 181.386C37.867 181.366 38.1248 181.076 38.1049 180.738L37.6356 172.784L35.189 172.929L35.0446 170.481L37.4912 170.337L37.022 162.383C37.0021 162.045 36.7119 161.787 36.3742 161.807L34.5393 161.916C33.8652 161.955 33.3483 162.536 33.3882 163.211ZM33.9296 173.076C33.9296 173.076 33.973 173.125 33.9833 173.3C34.0332 174.145 33.2501 175.811 32.7503 176.37C32.2643 176.913 31.4227 176.963 30.8762 176.481C30.612 176.247 30.4555 175.926 30.4349 175.576C30.4143 175.227 30.5319 174.89 30.7668 174.627C31.5476 173.753 33.618 172.808 33.9296 173.076ZM33.8038 170.256C33.814 170.43 33.7779 170.484 33.7767 170.484C33.4987 170.786 31.3316 170.092 30.4535 169.316C29.9265 168.852 29.8732 167.989 30.3441 167.462C30.83 166.917 31.6717 166.868 32.2182 167.351C32.7803 167.847 33.7538 169.409 33.8038 170.256Z" fill="white" fill-opacity="0.97"/>
<path d="M38.7184 170.266L47.2835 169.76L46.9224 163.643C46.8825 162.967 46.302 162.451 45.6265 162.491L38.285 162.925L38.7184 170.266Z" fill="white" fill-opacity="0.97"/>
</g>
<g filter="url(#filter15_d_954_75)">
<path d="M44.0238 132.89L51.0477 135.071C51.6939 135.272 52.3815 134.909 52.5818 134.264L54.3993 128.411L46.2047 125.867L44.0238 132.89Z" fill="white" fill-opacity="0.97"/>
<path d="M44.426 115.048L43.2764 118.752C43.1774 118.43 43.068 118.146 42.9559 117.936C42.2998 116.697 40.7547 116.217 39.5122 116.867C38.3026 117.498 37.8086 119.098 38.4464 120.301C38.7979 120.967 40.4531 122.957 41.8956 123.201L41.8694 123.285C40.5421 122.67 38.0512 123.373 37.3847 123.722C36.1774 124.353 35.6811 125.953 36.3189 127.156C36.9754 128.394 38.5205 128.874 39.7623 128.226C39.9736 128.116 40.2247 127.944 40.4886 127.734L39.339 131.439C39.1387 132.084 39.5012 132.773 40.1461 132.973L41.9019 133.518C42.225 133.618 42.5686 133.438 42.6689 133.114L45.0307 125.505L42.6897 124.778L43.4164 122.436L45.7575 123.163L48.1193 115.553C48.2196 115.23 48.0388 114.886 47.7158 114.786L45.9599 114.241C45.315 114.04 44.6266 114.402 44.426 115.048ZM41.4591 124.471C41.4591 124.471 41.4824 124.532 41.4305 124.7C41.1794 125.509 39.8597 126.792 39.195 127.139C38.5488 127.476 37.7435 127.226 37.4018 126.582C37.2368 126.27 37.2034 125.914 37.3073 125.58C37.4109 125.246 37.6397 124.972 37.9523 124.808C38.9908 124.266 41.2616 124.111 41.4591 124.471ZM42.3342 121.788C42.2826 121.954 42.2298 121.992 42.2287 121.991C41.8619 122.177 40.078 120.763 39.5293 119.727C39.1993 119.107 39.4531 118.281 40.0798 117.953C40.7264 117.615 41.5317 117.865 41.873 118.51C42.2244 119.173 42.5856 120.978 42.3342 121.788Z" fill="white" fill-opacity="0.97"/>
<path d="M46.9295 123.523L55.124 126.068L56.9415 120.215C57.1421 119.568 56.7805 118.881 56.1343 118.681L49.1104 116.5L46.9295 123.523Z" fill="white" fill-opacity="0.97"/>
</g>
<g filter="url(#filter16_d_954_75)">
<path d="M96.3129 61.3053L100.131 67.5924C100.482 68.1708 101.237 68.3545 101.815 68.0039L107.054 64.8224L102.6 57.4874L96.3129 61.3053Z" fill="white" fill-opacity="0.97"/>
<path d="M108.438 48.2056L105.123 50.2188C105.262 49.912 105.368 49.6265 105.423 49.3954C105.753 48.0321 104.913 46.649 103.551 46.3127C102.227 45.9837 100.797 46.855 100.478 48.1789C100.3 48.9108 100.221 51.4983 101.141 52.6367L101.065 52.6825C100.478 51.3424 98.1463 50.2184 97.4157 50.0381C96.0928 49.7113 94.6614 50.5804 94.3424 51.9043C94.0138 53.267 94.8538 54.6501 96.2134 54.9877C96.4447 55.0451 96.7471 55.0824 97.0835 55.1004L93.7681 57.1136C93.1908 57.4642 93.006 58.2204 93.3566 58.7977L94.311 60.3695C94.4867 60.6587 94.8639 60.7509 95.1531 60.5753L101.964 56.4394L100.692 54.3437L102.787 53.0712L104.06 55.1668L110.871 51.031C111.16 50.8554 111.252 50.4781 111.077 50.1889L110.122 48.6172C109.772 48.0398 109.017 47.8544 108.438 48.2056ZM99.9725 53.2989C99.9725 53.2989 99.9494 53.3602 99.7996 53.4512C99.0755 53.8908 97.2365 53.9778 96.5087 53.7972C95.8012 53.6216 95.3634 52.9007 95.5339 52.1919C95.6168 51.849 95.8274 51.5605 96.1271 51.3785C96.4257 51.1972 96.7789 51.1434 97.1214 51.228C98.2591 51.5095 100.063 52.8981 99.9725 53.2989ZM102.406 51.8687C102.257 51.9591 102.192 51.9523 102.192 51.9512C101.794 51.8469 101.394 49.6058 101.669 48.4665C101.832 47.7836 102.57 47.3329 103.257 47.5025C103.965 47.6775 104.403 48.3984 104.231 49.1078C104.056 49.8368 103.131 51.4284 102.406 51.8687Z" fill="white" fill-opacity="0.97"/>
<path d="M104.696 56.2151L109.15 63.5501L114.389 60.3685C114.968 60.0173 115.152 59.2628 114.801 58.6844L110.983 52.3973L104.696 56.2151Z" fill="white" fill-opacity="0.97"/>
</g>
<g filter="url(#filter17_d_954_75)">
<path d="M136.996 42.9336L138.613 50.1078C138.762 50.7678 139.419 51.1825 140.078 51.034L146.056 49.6865L144.17 41.3166L136.996 42.9336Z" fill="white" fill-opacity="0.97"/>
<path d="M152.663 34.3777L148.879 35.2299C149.109 34.9835 149.3 34.7469 149.426 34.5452C150.172 33.3583 149.817 31.7802 148.633 31.028C147.483 30.2947 145.85 30.665 145.126 31.818C144.724 32.455 143.826 34.882 144.335 36.2535L144.249 36.2729C144.119 34.816 142.266 33.0085 141.631 32.605C140.481 31.8741 138.848 32.2421 138.124 33.3951C137.379 34.5817 137.734 36.1598 138.916 36.9126C139.117 37.0406 139.391 37.1722 139.704 37.2964L135.921 38.1486C135.262 38.297 134.846 38.9548 134.994 39.6135L135.399 41.4068C135.473 41.7368 135.801 41.9442 136.131 41.8699L143.904 40.1191L143.365 37.7281L145.757 37.1894L146.296 39.5804L154.069 37.8296C154.399 37.7553 154.607 37.4272 154.532 37.0972L154.128 35.3039C153.98 34.6452 153.323 34.229 152.663 34.3777ZM143.016 36.509C143.016 36.509 142.975 36.5597 142.804 36.5982C141.978 36.7844 140.207 36.2812 139.575 35.8785C138.96 35.4868 138.774 34.6643 139.162 34.0469C139.349 33.7484 139.641 33.542 139.983 33.465C140.324 33.3882 140.676 33.4497 140.973 33.6389C141.962 34.2679 143.23 36.1581 143.016 36.509ZM145.778 35.9284C145.608 35.9666 145.55 35.9397 145.549 35.9385C145.206 35.7131 145.54 33.462 146.163 32.4699C146.536 31.8748 147.378 31.6825 147.975 32.0618C148.591 32.4532 148.777 33.2757 148.388 33.8934C147.99 34.5283 146.606 35.742 145.778 35.9284Z" fill="white" fill-opacity="0.97"/>
<path d="M146.564 40.7805L148.45 49.1504L154.429 47.8028C155.089 47.6541 155.503 46.9977 155.355 46.3376L153.738 39.1634L146.564 40.7805Z" fill="white" fill-opacity="0.97"/>
</g>
<g clip-path="url(#clip1_954_75)" filter="url(#filter18_d_954_75)">
<path d="M43.5158 201.203C39.9457 205.417 38.8807 211.259 40.7361 216.45C42.5915 221.64 47.1186 225.484 52.5513 226.48L53.2734 226.613L53.7482 226.052C57.319 221.838 58.3835 215.996 56.528 210.805C54.6726 205.615 50.1461 201.772 44.7128 200.775L43.99 200.642L43.5158 201.203ZM44.8044 209.361C45.3567 209.164 45.9262 209.129 46.4645 209.227C47.5622 209.427 48.5271 210.188 48.93 211.315C49.53 212.993 48.6555 214.841 46.9775 215.44C45.649 215.915 44.2177 215.464 43.3798 214.425C43.159 214.151 42.977 213.838 42.8515 213.487C42.2514 211.808 43.1259 209.961 44.8044 209.361ZM52.2698 216.642C51.6238 216.761 50.9687 216.402 50.7403 215.763C50.4868 215.054 50.8562 214.274 51.5658 214.02C52.1502 213.811 52.7774 214.03 53.1242 214.508C53.198 214.611 53.2637 214.721 53.3083 214.846C53.5618 215.555 53.1925 216.335 52.4833 216.589C52.413 216.614 52.3415 216.628 52.2698 216.642ZM52.2774 223.826C50.3168 223.348 48.5212 222.417 47.0103 221.151C48.2318 221.36 49.5205 221.272 50.7682 220.826C52.5748 220.18 53.9713 218.901 54.8156 217.332C54.5768 219.658 53.7165 221.914 52.2774 223.826ZM51.1796 206.952C49.5115 206.24 47.5859 206.121 45.7472 206.778C44.4718 207.234 43.4025 208.008 42.5838 208.974C42.9369 206.987 43.7448 205.08 44.9864 203.429C47.3641 204.009 49.503 205.247 51.1796 206.952Z" fill="#FFC733"/>
</g>
<g filter="url(#filter19_d_954_75)">
<circle cx="71" cy="87" r="15" stroke="#FF5752" stroke-width="2"/>
<rect x="61.0328" y="77.8197" width="8.65574" height="8.65574" fill="#FFC733"/>
<rect x="61.0328" y="88.0492" width="8.65574" height="8.65574" fill="#FF7976"/>
<rect x="72.0492" y="77.8197" width="8.65574" height="8.65574" fill="#FF7976"/>
<rect x="72.0492" y="88.0492" width="8.65574" height="8.65574" fill="#FFE365"/>
</g>
</g>
<defs>
<filter id="filter0_d_954_75" x="129" y="134" width="81.1474" height="81.1474" filterUnits="userSpaceOnUse" color-interpolation-filters="sRGB">
<feFlood flood-opacity="0" result="BackgroundImageFix"/>
<feColorMatrix in="SourceAlpha" type="matrix" values="0 0 0 0 0 0 0 0 0 0 0 0 0 0 0 0 0 0 127 0" result="hardAlpha"/>
<feOffset dy="4"/>
<feGaussianBlur stdDeviation="2"/>
<feColorMatrix type="matrix" values="0 0 0 0 0 0 0 0 0 0 0 0 0 0 0 0 0 0 0.25 0"/>
<feBlend mode="normal" in2="BackgroundImageFix" result="effect1_dropShadow_954_75"/>
<feBlend mode="normal" in="SourceGraphic" in2="effect1_dropShadow_954_75" result="shape"/>
</filter>
<filter id="filter1_d_954_75" x="155" y="156" width="28.2151" height="32.4462" filterUnits="userSpaceOnUse" color-interpolation-filters="sRGB">
<feFlood flood-opacity="0" result="BackgroundImageFix"/>
<feColorMatrix in="SourceAlpha" type="matrix" values="0 0 0 0 0 0 0 0 0 0 0 0 0 0 0 0 0 0 127 0" result="hardAlpha"/>
<feOffset dy="2"/>
<feGaussianBlur stdDeviation="1"/>
<feColorMatrix type="matrix" values="0 0 0 0 0 0 0 0 0 0 0 0 0 0 0 0 0 0 0.67 0"/>
<feBlend mode="normal" in2="BackgroundImageFix" result="effect1_dropShadow_954_75"/>
<feBlend mode="normal" in="SourceGraphic" in2="effect1_dropShadow_954_75" result="shape"/>
</filter>
<filter id="filter2_d_954_75" x="172.422" y="26.3583" width="43.41" height="35.7458" filterUnits="userSpaceOnUse" color-interpolation-filters="sRGB">
<feFlood flood-opacity="0" result="BackgroundImageFix"/>
<feColorMatrix in="SourceAlpha" type="matrix" values="0 0 0 0 0 0 0 0 0 0 0 0 0 0 0 0 0 0 127 0" result="hardAlpha"/>
<feOffset dy="2"/>
<feGaussianBlur stdDeviation="1"/>
<feColorMatrix type="matrix" values="0 0 0 0 0 0 0 0 0 0 0 0 0 0 0 0 0 0 0.25 0"/>
<feBlend mode="normal" in2="BackgroundImageFix" result="effect1_dropShadow_954_75"/>
<feBlend mode="normal" in="SourceGraphic" in2="effect1_dropShadow_954_75" result="shape"/>
</filter>
<filter id="filter3_d_954_75" x="272.509" y="109.821" width="40.0984" height="41.3932" filterUnits="userSpaceOnUse" color-interpolation-filters="sRGB">
<feFlood flood-opacity="0" result="BackgroundImageFix"/>
<feColorMatrix in="SourceAlpha" type="matrix" values="0 0 0 0 0 0 0 0 0 0 0 0 0 0 0 0 0 0 127 0" result="hardAlpha"/>
<feOffset dy="2"/>
<feGaussianBlur stdDeviation="1"/>
<feColorMatrix type="matrix" values="0 0 0 0 0 0 0 0 0 0 0 0 0 0 0 0 0 0 0.25 0"/>
<feBlend mode="normal" in2="BackgroundImageFix" result="effect1_dropShadow_954_75"/>
<feBlend mode="normal" in="SourceGraphic" in2="effect1_dropShadow_954_75" result="shape"/>
</filter>
<filter id="filter4_d_954_75" x="250.855" y="237.503" width="35.1554" height="35.1554" filterUnits="userSpaceOnUse" color-interpolation-filters="sRGB">
<feFlood flood-opacity="0" result="BackgroundImageFix"/>
<feColorMatrix in="SourceAlpha" type="matrix" values="0 0 0 0 0 0 0 0 0 0 0 0 0 0 0 0 0 0 127 0" result="hardAlpha"/>
<feOffset dy="2"/>
<feGaussianBlur stdDeviation="1"/>
<feColorMatrix type="matrix" values="0 0 0 0 0 0 0 0 0 0 0 0 0 0 0 0 0 0 0.25 0"/>
<feBlend mode="normal" in2="BackgroundImageFix" result="effect1_dropShadow_954_75"/>
<feBlend mode="normal" in="SourceGraphic" in2="effect1_dropShadow_954_75" result="shape"/>
</filter>
<filter id="filter5_d_954_75" x="131.095" y="282.664" width="34.5963" height="34.6281" filterUnits="userSpaceOnUse" color-interpolation-filters="sRGB">
<feFlood flood-opacity="0" result="BackgroundImageFix"/>
<feColorMatrix in="SourceAlpha" type="matrix" values="0 0 0 0 0 0 0 0 0 0 0 0 0 0 0 0 0 0 127 0" result="hardAlpha"/>
<feOffset dy="2"/>
<feGaussianBlur stdDeviation="1"/>
<feColorMatrix type="matrix" values="0 0 0 0 0 0 0 0 0 0 0 0 0 0 0 0 0 0 0.25 0"/>
<feBlend mode="normal" in2="BackgroundImageFix" result="effect1_dropShadow_954_75"/>
<feBlend mode="normal" in="SourceGraphic" in2="effect1_dropShadow_954_75" result="shape"/>
</filter>
<filter id="filter6_d_954_75" x="224.365" y="47.1283" width="25.8088" height="25.9531" filterUnits="userSpaceOnUse" color-interpolation-filters="sRGB">
<feFlood flood-opacity="0" result="BackgroundImageFix"/>
<feColorMatrix in="SourceAlpha" type="matrix" values="0 0 0 0 0 0 0 0 0 0 0 0 0 0 0 0 0 0 127 0" result="hardAlpha"/>
<feOffset dy="2"/>
<feGaussianBlur stdDeviation="1"/>
<feColorMatrix type="matrix" values="0 0 0 0 0 0 0 0 0 0 0 0 0 0 0 0 0 0 0.25 0"/>
<feBlend mode="normal" in2="BackgroundImageFix" result="effect1_dropShadow_954_75"/>
<feBlend mode="normal" in="SourceGraphic" in2="effect1_dropShadow_954_75" result="shape"/>
</filter>
<filter id="filter7_d_954_75" x="259.332" y="78.9127" width="26.0227" height="25.8001" filterUnits="userSpaceOnUse" color-interpolation-filters="sRGB">
<feFlood flood-opacity="0" result="BackgroundImageFix"/>
<feColorMatrix in="SourceAlpha" type="matrix" values="0 0 0 0 0 0 0 0 0 0 0 0 0 0 0 0 0 0 127 0" result="hardAlpha"/>
<feOffset dy="2"/>
<feGaussianBlur stdDeviation="1"/>
<feColorMatrix type="matrix" values="0 0 0 0 0 0 0 0 0 0 0 0 0 0 0 0 0 0 0.25 0"/>
<feBlend mode="normal" in2="BackgroundImageFix" result="effect1_dropShadow_954_75"/>
<feBlend mode="normal" in="SourceGraphic" in2="effect1_dropShadow_954_75" result="shape"/>
</filter>
<filter id="filter8_d_954_75" x="290.146" y="161.665" width="22.3983" height="23.6202" filterUnits="userSpaceOnUse" color-interpolation-filters="sRGB">
<feFlood flood-opacity="0" result="BackgroundImageFix"/>
<feColorMatrix in="SourceAlpha" type="matrix" values="0 0 0 0 0 0 0 0 0 0 0 0 0 0 0 0 0 0 127 0" result="hardAlpha"/>
<feOffset dy="2"/>
<feGaussianBlur stdDeviation="1"/>
<feColorMatrix type="matrix" values="0 0 0 0 0 0 0 0 0 0 0 0 0 0 0 0 0 0 0.25 0"/>
<feBlend mode="normal" in2="BackgroundImageFix" result="effect1_dropShadow_954_75"/>
<feBlend mode="normal" in="SourceGraphic" in2="effect1_dropShadow_954_75" result="shape"/>
</filter>
<filter id="filter9_d_954_75" x="279.668" y="205.144" width="25.3801" height="25.3336" filterUnits="userSpaceOnUse" color-interpolation-filters="sRGB">
<feFlood flood-opacity="0" result="BackgroundImageFix"/>
<feColorMatrix in="SourceAlpha" type="matrix" values="0 0 0 0 0 0 0 0 0 0 0 0 0 0 0 0 0 0 127 0" result="hardAlpha"/>
<feOffset dy="2"/>
<feGaussianBlur stdDeviation="1"/>
<feColorMatrix type="matrix" values="0 0 0 0 0 0 0 0 0 0 0 0 0 0 0 0 0 0 0.25 0"/>
<feBlend mode="normal" in2="BackgroundImageFix" result="effect1_dropShadow_954_75"/>
<feBlend mode="normal" in="SourceGraphic" in2="effect1_dropShadow_954_75" result="shape"/>
</filter>
<filter id="filter10_d_954_75" x="221.663" y="271.964" width="25.7534" height="25.8725" filterUnits="userSpaceOnUse" color-interpolation-filters="sRGB">
<feFlood flood-opacity="0" result="BackgroundImageFix"/>
<feColorMatrix in="SourceAlpha" type="matrix" values="0 0 0 0 0 0 0 0 0 0 0 0 0 0 0 0 0 0 127 0" result="hardAlpha"/>
<feOffset dy="2"/>
<feGaussianBlur stdDeviation="1"/>
<feColorMatrix type="matrix" values="0 0 0 0 0 0 0 0 0 0 0 0 0 0 0 0 0 0 0.25 0"/>
<feBlend mode="normal" in2="BackgroundImageFix" result="effect1_dropShadow_954_75"/>
<feBlend mode="normal" in="SourceGraphic" in2="effect1_dropShadow_954_75" result="shape"/>
</filter>
<filter id="filter11_d_954_75" x="180.452" y="289.352" width="23.9384" height="23.9202" filterUnits="userSpaceOnUse" color-interpolation-filters="sRGB">
<feFlood flood-opacity="0" result="BackgroundImageFix"/>
<feColorMatrix in="SourceAlpha" type="matrix" values="0 0 0 0 0 0 0 0 0 0 0 0 0 0 0 0 0 0 127 0" result="hardAlpha"/>
<feOffset dy="2"/>
<feGaussianBlur stdDeviation="1"/>
<feColorMatrix type="matrix" values="0 0 0 0 0 0 0 0 0 0 0 0 0 0 0 0 0 0 0.25 0"/>
<feBlend mode="normal" in2="BackgroundImageFix" result="effect1_dropShadow_954_75"/>
<feBlend mode="normal" in="SourceGraphic" in2="effect1_dropShadow_954_75" result="shape"/>
</filter>
<filter id="filter12_d_954_75" x="90.0549" y="270.24" width="25.8228" height="25.9776" filterUnits="userSpaceOnUse" color-interpolation-filters="sRGB">
<feFlood flood-opacity="0" result="BackgroundImageFix"/>
<feColorMatrix in="SourceAlpha" type="matrix" values="0 0 0 0 0 0 0 0 0 0 0 0 0 0 0 0 0 0 127 0" result="hardAlpha"/>
<feOffset dy="2"/>
<feGaussianBlur stdDeviation="1"/>
<feColorMatrix type="matrix" values="0 0 0 0 0 0 0 0 0 0 0 0 0 0 0 0 0 0 0.25 0"/>
<feBlend mode="normal" in2="BackgroundImageFix" result="effect1_dropShadow_954_75"/>
<feBlend mode="normal" in="SourceGraphic" in2="effect1_dropShadow_954_75" result="shape"/>
</filter>
<filter id="filter13_d_954_75" x="56.3166" y="241.747" width="26.0173" height="25.787" filterUnits="userSpaceOnUse" color-interpolation-filters="sRGB">
<feFlood flood-opacity="0" result="BackgroundImageFix"/>
<feColorMatrix in="SourceAlpha" type="matrix" values="0 0 0 0 0 0 0 0 0 0 0 0 0 0 0 0 0 0 127 0" result="hardAlpha"/>
<feOffset dy="2"/>
<feGaussianBlur stdDeviation="1"/>
<feColorMatrix type="matrix" values="0 0 0 0 0 0 0 0 0 0 0 0 0 0 0 0 0 0 0.25 0"/>
<feBlend mode="normal" in2="BackgroundImageFix" result="effect1_dropShadow_954_75"/>
<feBlend mode="normal" in="SourceGraphic" in2="effect1_dropShadow_954_75" result="shape"/>
</filter>
<filter id="filter14_d_954_75" x="26.8077" y="161.806" width="22.9814" height="23.6907" filterUnits="userSpaceOnUse" color-interpolation-filters="sRGB">
<feFlood flood-opacity="0" result="BackgroundImageFix"/>
<feColorMatrix in="SourceAlpha" type="matrix" values="0 0 0 0 0 0 0 0 0 0 0 0 0 0 0 0 0 0 127 0" result="hardAlpha"/>
<feOffset dy="2"/>
<feGaussianBlur stdDeviation="1"/>
<feColorMatrix type="matrix" values="0 0 0 0 0 0 0 0 0 0 0 0 0 0 0 0 0 0 0.25 0"/>
<feBlend mode="normal" in2="BackgroundImageFix" result="effect1_dropShadow_954_75"/>
<feBlend mode="normal" in="SourceGraphic" in2="effect1_dropShadow_954_75" result="shape"/>
</filter>
<filter id="filter15_d_954_75" x="34.0397" y="114.185" width="24.9572" height="24.941" filterUnits="userSpaceOnUse" color-interpolation-filters="sRGB">
<feFlood flood-opacity="0" result="BackgroundImageFix"/>
<feColorMatrix in="SourceAlpha" type="matrix" values="0 0 0 0 0 0 0 0 0 0 0 0 0 0 0 0 0 0 127 0" result="hardAlpha"/>
<feOffset dy="2"/>
<feGaussianBlur stdDeviation="1"/>
<feColorMatrix type="matrix" values="0 0 0 0 0 0 0 0 0 0 0 0 0 0 0 0 0 0 0.25 0"/>
<feBlend mode="normal" in2="BackgroundImageFix" result="effect1_dropShadow_954_75"/>
<feBlend mode="normal" in="SourceGraphic" in2="effect1_dropShadow_954_75" result="shape"/>
</filter>
<filter id="filter16_d_954_75" x="91.179" y="46.243" width="25.8" height="25.9387" filterUnits="userSpaceOnUse" color-interpolation-filters="sRGB">
<feFlood flood-opacity="0" result="BackgroundImageFix"/>
<feColorMatrix in="SourceAlpha" type="matrix" values="0 0 0 0 0 0 0 0 0 0 0 0 0 0 0 0 0 0 127 0" result="hardAlpha"/>
<feOffset dy="2"/>
<feGaussianBlur stdDeviation="1"/>
<feColorMatrix type="matrix" values="0 0 0 0 0 0 0 0 0 0 0 0 0 0 0 0 0 0 0.25 0"/>
<feBlend mode="normal" in2="BackgroundImageFix" result="effect1_dropShadow_954_75"/>
<feBlend mode="normal" in="SourceGraphic" in2="effect1_dropShadow_954_75" result="shape"/>
</filter>
<filter id="filter17_d_954_75" x="132.964" y="30.6498" width="24.4206" height="24.4143" filterUnits="userSpaceOnUse" color-interpolation-filters="sRGB">
<feFlood flood-opacity="0" result="BackgroundImageFix"/>
<feColorMatrix in="SourceAlpha" type="matrix" values="0 0 0 0 0 0 0 0 0 0 0 0 0 0 0 0 0 0 127 0" result="hardAlpha"/>
<feOffset dy="2"/>
<feGaussianBlur stdDeviation="1"/>
<feColorMatrix type="matrix" values="0 0 0 0 0 0 0 0 0 0 0 0 0 0 0 0 0 0 0.25 0"/>
<feBlend mode="normal" in2="BackgroundImageFix" result="effect1_dropShadow_954_75"/>
<feBlend mode="normal" in="SourceGraphic" in2="effect1_dropShadow_954_75" result="shape"/>
</filter>
<filter id="filter18_d_954_75" x="29.0047" y="196" width="39.2545" height="39.2545" filterUnits="userSpaceOnUse" color-interpolation-filters="sRGB">
<feFlood flood-opacity="0" result="BackgroundImageFix"/>
<feColorMatrix in="SourceAlpha" type="matrix" values="0 0 0 0 0 0 0 0 0 0 0 0 0 0 0 0 0 0 127 0" result="hardAlpha"/>
<feOffset dy="2"/>
<feGaussianBlur stdDeviation="1"/>
<feColorMatrix type="matrix" values="0 0 0 0 0 0 0 0 0 0 0 0 0 0 0 0 0 0 0.25 0"/>
<feBlend mode="normal" in2="BackgroundImageFix" result="effect1_dropShadow_954_75"/>
<feBlend mode="normal" in="SourceGraphic" in2="effect1_dropShadow_954_75" result="shape"/>
</filter>
<filter id="filter19_d_954_75" x="53" y="71" width="36" height="36" filterUnits="userSpaceOnUse" color-interpolation-filters="sRGB">
<feFlood flood-opacity="0" result="BackgroundImageFix"/>
<feColorMatrix in="SourceAlpha" type="matrix" values="0 0 0 0 0 0 0 0 0 0 0 0 0 0 0 0 0 0 127 0" result="hardAlpha"/>
<feOffset dy="2"/>
<feGaussianBlur stdDeviation="1"/>
<feColorMatrix type="matrix" values="0 0 0 0 0 0 0 0 0 0 0 0 0 0 0 0 0 0 0.25 0"/>
<feBlend mode="normal" in2="BackgroundImageFix" result="effect1_dropShadow_954_75"/>
<feBlend mode="normal" in="SourceGraphic" in2="effect1_dropShadow_954_75" result="shape"/>
</filter>
<radialGradient id="paint0_radial_954_75" cx="0" cy="0" r="1" gradientUnits="userSpaceOnUse" gradientTransform="translate(171.035 170.035) rotate(91.5194) scale(170.286)">
<stop offset="0.864583" stop-color="#1F1F1F" stop-opacity="0"/>
<stop offset="1"/>
</radialGradient>
<clipPath id="clip0_954_75">
<rect width="340" height="340" fill="white"/>
</clipPath>
<clipPath id="clip1_954_75">
<rect width="27.5803" height="27.5803" fill="white" transform="translate(40.2881 231.254) rotate(-109.67)"/>
</clipPath>
</defs>
</svg>
