<svg width="14" height="12" viewBox="0 0 14 12" fill="none" xmlns="http://www.w3.org/2000/svg">
<path d="M5.71431 10.5713C5.69643 10.5237 5.69027 10.4833 5.69633 10.4505C5.70237 10.418 5.68157 10.391 5.63388 10.3703C5.58619 10.3495 5.56239 10.333 5.56239 10.3213C5.56239 10.3094 5.52821 10.3004 5.45969 10.2945C5.3912 10.2885 5.35702 10.2855 5.35702 10.2855H5.241H5.14281H2.57137C2.17852 10.2855 1.84218 10.1458 1.56239 9.8658C1.28265 9.58604 1.1428 9.24979 1.1428 8.85701V2.57125C1.1428 2.1784 1.28262 1.84218 1.56239 1.56242C1.84218 1.28262 2.17852 1.14267 2.57137 1.14267H5.42848C5.50588 1.14267 5.56674 1.12347 5.61149 1.0847C5.65605 1.04601 5.68576 0.987937 5.70071 0.910569C5.7156 0.8332 5.72457 0.763337 5.72757 0.700822C5.73051 0.638371 5.72908 0.559438 5.72307 0.464213C5.71716 0.369018 5.71419 0.309506 5.71419 0.285583C5.71419 0.208214 5.68589 0.141384 5.62938 0.0847179C5.57281 0.0283018 5.50588 0 5.42851 0H2.57137C1.86311 0 1.25741 0.251495 0.754393 0.754455C0.251496 1.25741 0 1.86301 0 2.57134V8.85697C0 9.56524 0.251496 10.171 0.754393 10.6738C1.25741 11.177 1.86311 11.4285 2.57137 11.4285H5.42861C5.50601 11.4285 5.56689 11.409 5.61161 11.3705C5.65618 11.3317 5.68589 11.2737 5.70084 11.1963C5.71572 11.119 5.7247 11.0488 5.7277 10.9865C5.73064 10.924 5.7292 10.8452 5.7232 10.75C5.71722 10.6547 5.71431 10.5952 5.71431 10.5713Z" fill="white"/>
<path d="M13.8303 5.31243L8.97319 0.455176C8.86017 0.342219 8.7262 0.285553 8.57143 0.285553C8.41666 0.285553 8.28269 0.342219 8.16954 0.455176C8.05643 0.56829 7.99992 0.702356 7.99992 0.857031V3.42846H3.99994C3.84508 3.42846 3.7112 3.48513 3.59809 3.59809C3.48498 3.7112 3.42847 3.84517 3.42847 3.99994V7.42856C3.42847 7.5833 3.48498 7.71727 3.59809 7.83032C3.71133 7.94322 3.84518 8.00004 3.99994 8.00004H7.99995V10.5714C7.99995 10.7261 8.05646 10.8602 8.16957 10.9732C8.28269 11.0863 8.41666 11.143 8.57146 11.143C8.7262 11.143 8.86017 11.0863 8.97322 10.9732L13.8303 6.11617C13.9434 6.00296 13.9999 5.86918 13.9999 5.71438C13.9999 5.55964 13.9434 5.42554 13.8303 5.31243Z" fill="white"/>
</svg>
