<svg width="25" height="29" viewBox="0 0 25 29" fill="none" xmlns="http://www.w3.org/2000/svg">
<path d="M22.3443 0H6.22051C4.96328 0 3.94414 1.01914 3.94414 2.27637V5.55351C3.94414 5.92207 3.64531 6.2209 3.27676 6.2209H2.21641C1.84785 6.2209 1.54902 5.92207 1.54902 5.55351V0.667578C1.54902 0.299023 1.2502 0.000195317 0.88164 0.000195317H0.667383C0.298828 0.000195317 0 0.299023 0 0.667578V6.22109V7.77012V28.2551C0 28.6236 0.298828 28.9225 0.667383 28.9225H0.88164C1.2502 28.9225 1.54902 28.6236 1.54902 28.2551V8.43769C1.54902 8.06914 1.84785 7.77031 2.21641 7.77031H3.27676C3.64531 7.77031 3.94414 8.06914 3.94414 8.43769V26.6463C3.94414 27.9035 4.96328 28.9226 6.22051 28.9226H22.3443C23.6016 28.9226 24.6207 27.9035 24.6207 26.6463V2.27637C24.6207 1.01914 23.6014 0 22.3443 0ZM11.7098 18.1719C11.5527 18.5896 11.3275 18.9535 11.0346 19.2641C10.7416 19.5742 10.3459 19.7295 9.84805 19.7295C9.75605 19.7295 9.63906 19.7189 9.49726 19.6976C9.35547 19.6768 9.24629 19.6564 9.16973 19.6373L9.28476 18.7467C9.26152 18.7428 9.32949 18.7467 9.48867 18.7582C9.64746 18.7697 9.74824 18.7752 9.79023 18.7752C10.0318 18.7752 10.2289 18.6682 10.3822 18.4537C10.5355 18.2389 10.6639 18.0016 10.7674 17.7408L11.0375 17.0914L8.72734 10.9996H9.9916L11.302 14.9133L11.5029 15.6949H11.5373L13.066 10.9996H14.3246L11.7098 18.1719ZM20.3592 17.218H19.3418L19.267 16.2986C19.0717 16.632 18.8207 16.8885 18.5141 17.0686C18.2078 17.2486 17.8533 17.3387 17.451 17.3387C16.7728 17.3387 16.2441 17.1225 15.8648 16.6893C15.4855 16.2564 15.2959 15.582 15.2959 14.6662V10.9998H16.4281V14.6777C16.4281 15.3406 16.5258 15.7967 16.7211 16.0455C16.9164 16.2947 17.2213 16.4191 17.635 16.4191C18.0371 16.4191 18.3695 16.3377 18.632 16.175C18.8945 16.0119 19.0928 15.7812 19.2269 15.4824V10.9998H20.3592V17.218Z" fill="#FFFDFE"/>
</svg>
