<?xml version="1.0" encoding="UTF-8"?>
<svg id="_Слой_2" data-name="Слой 2" xmlns="http://www.w3.org/2000/svg" xmlns:xlink="http://www.w3.org/1999/xlink" viewBox="0 0 303 303">
  <defs>
    <style>
      .cls-1 {
        fill: #fff;
      }

      .cls-2 {
        fill: none;
      }

      .cls-2, .cls-3 {
        stroke: #fff;
        stroke-miterlimit: 10;
        stroke-width: 3px;
      }

      .cls-3 {
        fill: url(#_Безымянный_градиент_12);
      }
    </style>
    <linearGradient id="_Безымянный_градиент_12" data-name="Безымянный градиент 12" x1="151.5" y1="301.5" x2="151.5" y2="1.5" gradientUnits="userSpaceOnUse">
      <stop offset="0" stop-color="#c5217c"/>
      <stop offset=".03" stop-color="#ab2078"/>
      <stop offset=".07" stop-color="#922075"/>
      <stop offset=".11" stop-color="#802073"/>
      <stop offset=".15" stop-color="#762072"/>
      <stop offset=".2" stop-color="#732072"/>
      <stop offset=".21" stop-color="#712071"/>
      <stop offset=".39" stop-color="#5a2067"/>
      <stop offset=".5" stop-color="#522164"/>
      <stop offset=".62" stop-color="#552066"/>
      <stop offset=".73" stop-color="#611f6e"/>
      <stop offset=".79" stop-color="#6b1e76"/>
      <stop offset=".98" stop-color="#8f4c97"/>
      <stop offset="1" stop-color="#93519b"/>
    </linearGradient>
  </defs>
  <g id="_Слой_2-2" data-name="Слой 2">
    <g>
      <rect class="cls-3" x="1.5" y="1.5" width="300" height="300" rx="55.02" ry="55.02"/>
      <path class="cls-2" d="M227.99,77.56V225.45c0,8.87-7.19,16.05-16.05,16.05H114.05c-8.87,0-16.06-7.18-16.06-16.05V118c0-1.48-.6-2.82-1.57-3.8-.97-.97-2.32-1.57-3.8-1.57-2.97,0-5.37,2.41-5.37,5.37v116.18c0,4.12-3.4,7.44-7.55,7.32-4-.12-7.09-3.62-7.09-7.62V68.82c0-4.12,3.4-7.44,7.54-7.31,4.01,.12,7.1,3.61,7.1,7.62v24.13c0,1.48,.6,2.83,1.57,3.8,.97,.97,2.32,1.57,3.8,1.57,2.97,0,5.37-2.4,5.37-5.37v-15.7c0-8.87,7.19-16.06,16.06-16.06h97.89c8.86,0,16.05,7.19,16.05,16.06Z"/>
      <g>
        <path class="cls-1" d="M145.2,170.45l-14.55-39.48h6.26l11.6,32.8-3.3,6.68Zm11.5-39.48h6.26l-15.54,45.04c-.87,2.51-2.12,4.25-3.76,5.22-1.64,.97-3.89,1.46-6.75,1.46h-1.44v-5.84h1.44c1.62,0,2.9-.35,3.85-1.04,.95-.69,1.76-1.89,2.44-3.6l13.5-41.24Z"/>
        <path class="cls-1" d="M175.4,130.97v22.18c0,2.88,.74,5.12,2.23,6.7s3.58,2.37,6.28,2.37,4.78-.72,6.24-2.16,2.2-3.46,2.2-6.06l.49,7.63c-.73,1.64-2,3.11-3.81,4.41s-4.19,1.95-7.12,1.95c-4.03,0-7.14-1.29-9.33-3.88-2.19-2.59-3.29-6.24-3.29-10.95v-22.18h6.12Zm16.95,36.49v-36.49h6.08v36.49h-6.08Z"/>
      </g>
    </g>
  </g>
</svg>