<svg width="13" height="13" viewBox="0 0 13 13" fill="none" xmlns="http://www.w3.org/2000/svg">
<g clip-path="url(#clip0)">
<path d="M11.2929 7.18593C11.2929 6.98995 11.3582 6.79397 11.3582 6.53266C11.3582 6.27136 11.3582 6.07538 11.2929 5.8794L12.6648 4.76884C12.7954 4.63819 12.7954 4.50754 12.7301 4.37688L11.4236 2.09045C11.3582 2.02513 11.2276 1.9598 11.0316 2.02513L9.39845 2.67839C9.07182 2.41709 8.67986 2.22111 8.2879 2.02513L8.0266 0.326633C8.09192 0.130653 7.89592 0 7.76529 0H5.15223C5.02155 0 4.8256 0.130653 4.8256 0.261307L4.56429 2.02513C4.17233 2.15578 3.8457 2.41709 3.45374 2.67839L1.8859 2.02513C1.68993 1.9598 1.55927 2.02513 1.42859 2.15578L0.122063 4.44221C0.0567369 4.50754 0.122063 4.70352 0.252716 4.83417L1.62457 5.8794C1.62457 6.07538 1.55925 6.27136 1.55925 6.53266C1.55925 6.79397 1.55925 6.98995 1.62457 7.18593L0.252716 8.29648C0.122063 8.42716 0.122063 8.55779 0.18739 8.68847L1.49392 10.9749C1.55925 11.0402 1.68987 11.1056 1.88588 11.0402L3.51904 10.387C3.84567 10.6483 4.23763 10.8442 4.62959 11.0402L4.8909 12.7387C4.8909 12.8694 5.02155 13 5.21753 13H7.83059C7.96127 13 8.15722 12.8693 8.15722 12.7387L8.41853 11.0402C8.81049 10.8442 9.20245 10.6483 9.52908 10.387L11.1622 11.0402C11.2929 11.1056 11.4889 11.0402 11.5542 10.9095L12.8608 8.62312C12.9261 8.49246 12.9261 8.29648 12.7954 8.23116L11.2929 7.18593ZM6.45876 8.8191C5.21756 8.8191 4.17233 7.77387 4.17233 6.53266C4.17233 5.29146 5.21756 4.24623 6.45876 4.24623C7.69996 4.24623 8.74519 5.29146 8.74519 6.53266C8.74519 7.77387 7.69996 8.8191 6.45876 8.8191Z" fill="white"/>
</g>
<defs>
<clipPath id="clip0">
<rect width="13" height="13" fill="white"/>
</clipPath>
</defs>
</svg>
