<svg width="54" height="54" viewBox="0 0 54 54" fill="none" xmlns="http://www.w3.org/2000/svg">
<g clip-path="url(#clip0)">
<path d="M27 54C40.9573 54 52.3125 42.6448 52.3125 28.6875C52.3125 15.8659 42.9427 5.25403 30.3573 3.59859C30.3649 3.52266 30.375 3.44672 30.375 3.375C30.375 1.51369 28.8613 0 27 0C25.1387 0 23.625 1.51369 23.625 3.375C23.625 3.44672 23.6351 3.52266 23.6427 3.59859C11.0573 5.25403 1.6875 15.8659 1.6875 28.6875C1.6875 42.6448 13.0427 54 27 54ZM46.5851 24.2907C47.0509 24.2907 47.4289 23.9136 47.4289 23.447C47.4289 23.3592 47.4036 23.2799 47.3783 23.1998C47.774 24.6907 48.0111 26.2448 48.0727 27.8488H36.2382C36.1412 26.7705 35.8552 25.7487 35.4198 24.8071L45.7034 18.8705C46.3987 20.2027 46.9513 21.6211 47.3521 23.1044C47.2205 22.8099 46.9277 22.6041 46.5851 22.6041H46.5758C46.1101 22.6041 45.7372 22.9812 45.7372 23.4478C45.7372 23.9144 46.1185 24.2907 46.5851 24.2907ZM46.586 34.7718C46.9117 34.7718 47.1859 34.5811 47.3268 34.3111C46.9218 35.775 46.3615 37.1765 45.6663 38.4961L35.4156 32.5772C35.8526 31.6364 36.1395 30.6146 36.2391 29.5363H48.0727C48.0119 31.0711 47.7892 32.5662 47.4154 34.0006C47.4179 33.9753 47.4306 33.9533 47.4306 33.928C47.4306 33.4614 47.0526 33.0843 46.5868 33.0843H46.5775C46.1118 33.0843 45.7388 33.4614 45.7388 33.928C45.7388 34.3946 46.1194 34.7718 46.586 34.7718ZM41.3446 42.163H41.3353C40.8696 42.163 40.4966 42.5402 40.4966 43.0068C40.4966 43.4734 40.878 43.8505 41.3446 43.8505C41.5184 43.8505 41.6703 43.7856 41.8044 43.6953C40.7312 44.755 39.5415 45.6983 38.2615 46.51L32.3452 36.2618C33.2066 35.651 33.9593 34.9 34.571 34.0377L44.8192 39.9549C44.0159 41.2214 43.0827 42.3976 42.0365 43.4616C42.1242 43.3282 42.1892 43.1781 42.1892 43.0059C42.1883 42.5402 41.8103 42.163 41.3446 42.163ZM32.2658 47.4036H32.2566C31.7908 47.4036 31.4179 47.7807 31.4179 48.2473C31.4179 48.7139 31.7993 49.0911 32.2658 49.0911C32.3738 49.0911 32.4742 49.0666 32.5687 49.0303C31.0534 49.4454 29.4722 49.696 27.8429 49.7602V37.9257C28.9204 37.8287 29.9422 37.5418 30.8829 37.1056L36.8018 47.3563C35.4772 48.0541 34.0706 48.6143 32.6 49.0202C32.8987 48.8911 33.1096 48.5941 33.1096 48.2465C33.1096 47.7807 32.7316 47.4036 32.2658 47.4036ZM17.1982 47.3572L23.1187 37.1073C24.0587 37.5427 25.0796 37.8287 26.1571 37.9266V49.7602C22.9331 49.6319 19.8939 48.7789 17.1982 47.3572ZM9.18084 39.9549L19.4299 34.0386C20.0408 34.9 20.7934 35.6535 21.6565 36.2635L15.7376 46.5109C13.0975 44.836 10.8548 42.5933 9.18084 39.9549ZM30.7935 22.1189C30.7943 22.1198 30.7952 22.1206 30.796 22.1214C30.7969 22.1223 30.7986 22.1223 30.7994 22.1231C33.0607 23.4368 34.5887 25.8778 34.5929 28.6757C34.5929 28.6816 34.5895 28.6875 34.5895 28.6934C34.5895 28.6993 34.5929 28.7035 34.5929 28.7094C34.5811 32.886 31.1808 36.2812 27 36.2812C22.8125 36.2812 19.4062 32.875 19.4062 28.6875C19.4062 24.5 22.8125 21.0938 27 21.0938C28.3829 21.0938 29.6764 21.4709 30.7935 22.1189ZM26.1562 7.91269V19.4493C25.0771 19.5472 24.0545 19.834 23.1128 20.2711L17.1762 9.99C19.8011 8.61975 22.7593 7.78697 25.9149 7.62834C26.0044 7.7355 26.0854 7.83 26.1562 7.91269ZM15.7115 10.8278L21.6515 21.1148C20.7883 21.7274 20.0348 22.48 19.4231 23.3449L9.1395 17.4074C10.811 14.7521 13.0537 12.5002 15.7115 10.8278ZM8.29659 18.8688L18.5802 24.8062C18.144 25.747 17.8588 26.7697 17.7609 27.848H5.9265C6.05137 24.6113 6.88922 21.5662 8.29659 18.8688ZM17.7618 29.5363C17.8605 30.6146 18.1482 31.6364 18.5853 32.5772L8.33372 38.4953C6.91031 35.7986 6.05644 32.7594 5.92734 29.5363H17.7618ZM34.576 23.3449C33.9652 22.4817 33.2125 21.7283 32.3494 21.1165L38.2894 10.8278C40.9463 12.501 43.1899 14.753 44.8597 17.4083L34.576 23.3449ZM30.8888 20.2711C29.9472 19.834 28.9237 19.5472 27.8438 19.4484V7.91269C27.9155 7.83 27.9965 7.73466 28.0859 7.62581C31.2415 7.78444 34.2006 8.61891 36.8246 9.99L30.8888 20.2711ZM27 1.6875C27.9307 1.6875 28.6875 2.44434 28.6875 3.375C28.6875 3.51338 28.6335 3.70069 28.5398 3.92006C28.5373 3.92512 28.5348 3.93103 28.5323 3.93694C28.2623 4.563 27.6682 5.45063 27.0143 6.26991C27.0101 6.27581 27.0008 6.27834 26.9966 6.28509C26.9949 6.28341 26.9932 6.28172 26.9916 6.28003C26.0997 5.15531 25.3125 3.89559 25.3125 3.375C25.3125 2.44434 26.0693 1.6875 27 1.6875ZM24.2376 5.22788C24.3844 5.49703 24.5472 5.7645 24.7185 6.02437C13.1043 7.16259 4.21875 16.8303 4.21875 28.6875C4.21875 32.8202 5.33081 36.6964 7.263 40.0427C7.26891 40.0545 7.26891 40.068 7.27566 40.0798C7.28578 40.0967 7.29928 40.1085 7.31025 40.1254C9.30319 43.5426 12.1576 46.3953 15.5773 48.3857C15.5908 48.3941 15.5976 48.4076 15.6119 48.4161C15.6322 48.4287 15.6558 48.4329 15.6769 48.4431C19.0156 50.3634 22.88 51.4688 27 51.4688C31.1158 51.4688 34.9768 50.366 38.3122 48.449C38.3375 48.4372 38.3645 48.4312 38.3881 48.4177C38.405 48.4085 38.4126 48.3924 38.4286 48.3823C41.8416 46.3944 44.6926 43.5468 46.683 40.1355C46.6965 40.1169 46.7134 40.1026 46.7252 40.0823C46.7336 40.068 46.7328 40.052 46.7404 40.0376C48.6709 36.6922 49.7812 32.8185 49.7812 28.6875C49.7812 16.8303 40.8966 7.16344 29.2823 6.02353C29.4528 5.76366 29.6165 5.49703 29.7624 5.22872C41.6947 6.61078 50.625 16.5949 50.625 28.6875C50.625 41.7142 40.0267 52.3125 27 52.3125C13.9733 52.3125 3.375 41.7142 3.375 28.6875C3.375 16.5949 12.3053 6.61078 24.2376 5.22788Z" fill="white"/>
<path d="M7.46467 33.0843H7.45539C6.98964 33.0843 6.6167 33.4614 6.6167 33.928C6.6167 34.3946 6.99807 34.7718 7.46467 34.7718C7.93042 34.7718 8.30842 34.3946 8.30842 33.928C8.30842 33.4614 7.92957 33.0843 7.46467 33.0843Z" fill="white"/>
<path d="M41.3446 13.5245H41.3353C40.8695 13.5245 40.4966 13.9016 40.4966 14.3682C40.4966 14.8348 40.878 15.212 41.3446 15.212C41.8103 15.212 42.1883 14.8348 42.1883 14.3682C42.1883 13.9016 41.8103 13.5245 41.3446 13.5245Z" fill="white"/>
<path d="M12.7061 42.163H12.6968C12.2311 42.163 11.8582 42.5402 11.8582 43.0068C11.8582 43.4734 12.2395 43.8505 12.7061 43.8505C13.1719 43.8505 13.5499 43.4734 13.5499 43.0068C13.5499 42.5402 13.171 42.163 12.7061 42.163Z" fill="white"/>
<path d="M32.2667 9.96975C32.7324 9.96975 33.1104 9.59259 33.1104 9.126C33.1104 8.65941 32.7324 8.28225 32.2667 8.28225H32.2574C31.7916 8.28225 31.4187 8.65941 31.4187 9.126C31.4187 9.59259 31.8001 9.96975 32.2667 9.96975Z" fill="white"/>
<path d="M21.783 47.4036H21.7737C21.308 47.4036 20.9351 47.7807 20.9351 48.2473C20.9351 48.7139 21.3164 49.0911 21.783 49.0911C22.2488 49.0911 22.6268 48.7139 22.6268 48.2473C22.6268 47.7807 22.2488 47.4036 21.783 47.4036Z" fill="white"/>
<path d="M21.784 9.96975C22.2498 9.96975 22.6278 9.59259 22.6278 9.126C22.6278 8.65941 22.2498 8.28225 21.784 8.28225H21.7747C21.309 8.28225 20.936 8.65941 20.936 9.126C20.936 9.59259 21.3183 9.96975 21.784 9.96975Z" fill="white"/>
<path d="M12.7061 15.2103C13.1719 15.2103 13.5499 14.8331 13.5499 14.3665C13.5499 13.8999 13.1719 13.5228 12.7061 13.5228H12.6968C12.2311 13.5228 11.8582 13.8999 11.8582 14.3665C11.8582 14.8331 12.2395 15.2103 12.7061 15.2103Z" fill="white"/>
<path d="M7.46467 24.289C7.93042 24.289 8.30842 23.9119 8.30842 23.4453C8.30842 22.9787 7.93042 22.6015 7.46467 22.6015H7.45539C6.98964 22.6015 6.6167 22.9787 6.6167 23.4453C6.6167 23.9119 6.99807 24.289 7.46467 24.289Z" fill="white"/>
<path d="M21.9375 27C21.9375 27.4666 22.3147 27.8438 22.7813 27.8438H31.2162C31.6828 27.8438 32.06 27.4666 32.06 27C32.06 26.5334 31.6828 26.1562 31.2162 26.1562H22.7813C22.3147 26.1562 21.9375 26.5334 21.9375 27Z" fill="white"/>
<path d="M31.2162 28.6875H22.7813C22.3147 28.6875 21.9375 29.0647 21.9375 29.5312C21.9375 29.9978 22.3147 30.375 22.7813 30.375H31.2162C31.6828 30.375 32.06 29.9978 32.06 29.5312C32.06 29.0647 31.6828 28.6875 31.2162 28.6875Z" fill="white"/>
<path d="M28.6876 31.2188H25.3101C24.8435 31.2188 24.4663 31.5959 24.4663 32.0625C24.4663 32.5291 24.8435 32.9062 25.3101 32.9062H28.6876C29.1542 32.9062 29.5313 32.5291 29.5313 32.0625C29.5313 31.5959 29.1542 31.2188 28.6876 31.2188Z" fill="white"/>
</g>
<defs>
<clipPath id="clip0">
<rect width="54" height="54" fill="white"/>
</clipPath>
</defs>
</svg>
